<?xml version="1.0" encoding="UTF-8"?><svg xmlns="http://www.w3.org/2000/svg" xmlns:xlink="http://www.w3.org/1999/xlink" clip-rule="evenodd" stroke-miterlimit="10" viewBox="0 0 1920 1080"><desc>SVG generated by Keynote</desc><defs></defs><g transform="matrix(1.00, 0.00, -0.00, -1.00, 0.0, 1080.0)"><path d="M 0.0 0.0 L 1920.0 0.0 L 1920.0 1080.0 L 0.0 1080.0 Z M 0.0 0.0 " fill="#FEFFFF"></path><text xml:space="preserve" font-family="Arvo,Arvo" font-size="112.0" fill="#000000" transform="matrix(1.00, 0.00, -0.00, -1.00, 838.6, 248.7)">D</text><text xml:space="preserve" font-family="Arvo,Arvo" font-size="112.0" fill="#000000" transform="matrix(1.00, 0.00, -0.00, -1.00, 921.0, 248.7)">r</text><text xml:space="preserve" font-family="Arvo,Arvo" font-size="112.0" fill="#000000" transform="matrix(1.00, 0.00, -0.00, -1.00, 973.5, 248.7)">i</text><text xml:space="preserve" font-family="Arvo,Arvo" font-size="112.0" fill="#000000" transform="matrix(1.00, 0.00, -0.00, -1.00, 1009.4, 248.7)">l</text><text xml:space="preserve" font-family="Arvo,Arvo" font-size="112.0" fill="#000000" transform="matrix(1.00, 0.00, -0.00, -1.00, 1045.8, 248.7)">l</text><text xml:space="preserve" font-family="Helvetica-Light,Helvetica" font-size="44.0" fill="#000000" transform="matrix(1.00, 0.00, -0.00, -1.00, 531.3, 164.7)">W</text><text xml:space="preserve" font-family="Helvetica-Light,Helvetica" font-size="44.0" fill="#000000" transform="matrix(1.00, 0.00, -0.00, -1.00, 568.8, 164.7)">a</text><text xml:space="preserve" font-family="Helvetica-Light,Helvetica" font-size="44.0" fill="#000000" transform="matrix(1.00, 0.00, -0.00, -1.00, 593.3, 164.7)">n</text><text xml:space="preserve" font-family="Helvetica-Light,Helvetica" font-size="44.0" fill="#000000" transform="matrix(1.00, 0.00, -0.00, -1.00, 617.7, 164.7)">t</text><text xml:space="preserve" font-family="Helvetica-Light,Helvetica" font-size="44.0" fill="#000000" transform="matrix(1.00, 0.00, -0.00, -1.00, 630.0, 164.7)"> </text><text xml:space="preserve" font-family="Helvetica-Light,Helvetica" font-size="44.0" fill="#000000" transform="matrix(1.00, 0.00, -0.00, -1.00, 642.2, 164.7)">t</text><text xml:space="preserve" font-family="Helvetica-Light,Helvetica" font-size="44.0" fill="#000000" transform="matrix(1.00, 0.00, -0.00, -1.00, 654.4, 164.7)">o</text><text xml:space="preserve" font-family="Helvetica-Light,Helvetica" font-size="44.0" fill="#000000" transform="matrix(1.00, 0.00, -0.00, -1.00, 678.9, 164.7)"> </text><text xml:space="preserve" font-family="Helvetica-Light,Helvetica" font-size="44.0" fill="#000000" transform="matrix(1.00, 0.00, -0.00, -1.00, 691.1, 164.7)">L</text><text xml:space="preserve" font-family="Helvetica-Light,Helvetica" font-size="44.0" fill="#000000" transform="matrix(1.00, 0.00, -0.00, -1.00, 715.6, 164.7)">e</text><text xml:space="preserve" font-family="Helvetica-Light,Helvetica" font-size="44.0" fill="#000000" transform="matrix(1.00, 0.00, -0.00, -1.00, 740.1, 164.7)">a</text><text xml:space="preserve" font-family="Helvetica-Light,Helvetica" font-size="44.0" fill="#000000" transform="matrix(1.00, 0.00, -0.00, -1.00, 764.5, 164.7)">r</text><text xml:space="preserve" font-family="Helvetica-Light,Helvetica" font-size="44.0" fill="#000000" transform="matrix(1.00, 0.00, -0.00, -1.00, 780.0, 164.7)">n</text><text xml:space="preserve" font-family="Helvetica-Light,Helvetica" font-size="44.0" fill="#000000" transform="matrix(1.00, 0.00, -0.00, -1.00, 804.4, 164.7)"> </text><text xml:space="preserve" font-family="Helvetica-Light,Helvetica" font-size="44.0" fill="#000000" transform="matrix(1.00, 0.00, -0.00, -1.00, 816.7, 164.7)">S</text><text xml:space="preserve" font-family="Helvetica-Light,Helvetica" font-size="44.0" fill="#000000" transform="matrix(1.00, 0.00, -0.00, -1.00, 843.5, 164.7)">o</text><text xml:space="preserve" font-family="Helvetica-Light,Helvetica" font-size="44.0" fill="#000000" transform="matrix(1.00, 0.00, -0.00, -1.00, 868.0, 164.7)">m</text><text xml:space="preserve" font-family="Helvetica-Light,Helvetica" font-size="44.0" fill="#000000" transform="matrix(1.00, 0.00, -0.00, -1.00, 904.7, 164.7)">e</text><text xml:space="preserve" font-family="Helvetica-Light,Helvetica" font-size="44.0" fill="#000000" transform="matrix(1.00, 0.00, -0.00, -1.00, 929.1, 164.7)">t</text><text xml:space="preserve" font-family="Helvetica-Light,Helvetica" font-size="44.0" fill="#000000" transform="matrix(1.00, 0.00, -0.00, -1.00, 941.4, 164.7)">h</text><text xml:space="preserve" font-family="Helvetica-Light,Helvetica" font-size="44.0" fill="#000000" transform="matrix(1.00, 0.00, -0.00, -1.00, 965.8, 164.7)">i</text><text xml:space="preserve" font-family="Helvetica-Light,Helvetica" font-size="44.0" fill="#000000" transform="matrix(1.00, 0.00, -0.00, -1.00, 975.6, 164.7)">n</text><text xml:space="preserve" font-family="Helvetica-Light,Helvetica" font-size="44.0" fill="#000000" transform="matrix(1.00, 0.00, -0.00, -1.00, 1000.0, 164.7)">g</text><text xml:space="preserve" font-family="Helvetica-Light,Helvetica" font-size="44.0" fill="#000000" transform="matrix(1.00, 0.00, -0.00, -1.00, 1026.9, 164.7)">?</text><text xml:space="preserve" font-family="Helvetica-Light,Helvetica" font-size="44.0" fill="#000000" transform="matrix(1.00, 0.00, -0.00, -1.00, 1048.9, 164.7)"> </text><text xml:space="preserve" font-family="Helvetica-Light,Helvetica" font-size="44.0" fill="#000000" transform="matrix(1.00, 0.00, -0.00, -1.00, 1061.2, 164.7)">S</text><text xml:space="preserve" font-family="Helvetica-Light,Helvetica" font-size="44.0" fill="#000000" transform="matrix(1.00, 0.00, -0.00, -1.00, 1088.0, 164.7)">t</text><text xml:space="preserve" font-family="Helvetica-Light,Helvetica" font-size="44.0" fill="#000000" transform="matrix(1.00, 0.00, -0.00, -1.00, 1100.3, 164.7)">o</text><text xml:space="preserve" font-family="Helvetica-Light,Helvetica" font-size="44.0" fill="#000000" transform="matrix(1.00, 0.00, -0.00, -1.00, 1124.7, 164.7)">p</text><text xml:space="preserve" font-family="Helvetica-Light,Helvetica" font-size="44.0" fill="#000000" transform="matrix(1.00, 0.00, -0.00, -1.00, 1151.6, 164.7)"> </text><text xml:space="preserve" font-family="Helvetica-Light,Helvetica" font-size="44.0" fill="#000000" transform="matrix(1.00, 0.00, -0.00, -1.00, 1163.9, 164.7)">W</text><text xml:space="preserve" font-family="Helvetica-Light,Helvetica" font-size="44.0" fill="#000000" transform="matrix(1.00, 0.00, -0.00, -1.00, 1201.3, 164.7)">a</text><text xml:space="preserve" font-family="Helvetica-Light,Helvetica" font-size="44.0" fill="#000000" transform="matrix(1.00, 0.00, -0.00, -1.00, 1225.8, 164.7)">n</text><text xml:space="preserve" font-family="Helvetica-Light,Helvetica" font-size="44.0" fill="#000000" transform="matrix(1.00, 0.00, -0.00, -1.00, 1250.3, 164.7)">d</text><text xml:space="preserve" font-family="Helvetica-Light,Helvetica" font-size="44.0" fill="#000000" transform="matrix(1.00, 0.00, -0.00, -1.00, 1277.2, 164.7)">e</text><text xml:space="preserve" font-family="Helvetica-Light,Helvetica" font-size="44.0" fill="#000000" transform="matrix(1.00, 0.00, -0.00, -1.00, 1301.6, 164.7)">r</text><text xml:space="preserve" font-family="Helvetica-Light,Helvetica" font-size="44.0" fill="#000000" transform="matrix(1.00, 0.00, -0.00, -1.00, 1316.3, 164.7)">i</text><text xml:space="preserve" font-family="Helvetica-Light,Helvetica" font-size="44.0" fill="#000000" transform="matrix(1.00, 0.00, -0.00, -1.00, 1326.0, 164.7)">n</text><text xml:space="preserve" font-family="Helvetica-Light,Helvetica" font-size="44.0" fill="#000000" transform="matrix(1.00, 0.00, -0.00, -1.00, 1350.5, 164.7)">g</text><text xml:space="preserve" font-family="Helvetica-Light,Helvetica" font-size="44.0" fill="#000000" transform="matrix(1.00, 0.00, -0.00, -1.00, 1377.4, 164.7)">.</text><text xml:space="preserve" font-family="Helvetica-Light,Helvetica" font-size="44.0" fill="#000000" transform="matrix(1.00, 0.00, -0.00, -1.00, 1389.6, 164.7)"> </text><image xlink:href="../../45D36621-484C-4026-80EC-FDBD73C2A2AB/assets/0B8FB1099E7C8162409FBD26888E0587.png" width="271.00" height="313.00" transform="matrix(0.86, 0.00, -0.00, -0.86, 470.0, 960.0)"></image><g><clipPath id="clip0x6180008adfe0"><path d="M 843.0 744.0 L 1077.0 744.0 L 1077.0 474.0 L 843.0 474.0 Z M 843.4 743.9 "></path></clipPath><g clip-path="url(#clip0x6180008adfe0)"><image xlink:href="../../45D36621-484C-4026-80EC-FDBD73C2A2AB/assets/3D1F66418350F10832D1BF512142EB2E.png" width="270.00" height="312.00" transform="matrix(0.87, 0.00, -0.00, -0.87, 843.0, 744.0)"></image></g></g><image xlink:href="../../45D36621-484C-4026-80EC-FDBD73C2A2AB/assets/923CE3E752E9A611681D8CB028AA19A7.png" width="270.00" height="312.00" transform="matrix(0.86, 0.00, -0.00, -0.87, 969.0, 960.0)"></image><image xlink:href="../../45D36621-484C-4026-80EC-FDBD73C2A2AB/assets/923CE3E752E9A611681D8CB028AA19A7.png" width="270.00" height="312.00" transform="matrix(0.86, 0.00, -0.00, -0.87, 1094.0, 744.0)"></image><image xlink:href="../../45D36621-484C-4026-80EC-FDBD73C2A2AB/assets/4BF93B6B9A632B04CCD62E849F06CD3B.png" width="972.00" height="454.00" transform="matrix(0.24, 0.00, -0.00, -0.24, 1094.2, 474.4)"></image><image xlink:href="../../45D36621-484C-4026-80EC-FDBD73C2A2AB/assets/923CE3E752E9A611681D8CB028AA19A7.png" width="270.00" height="312.00" transform="matrix(0.86, 0.00, -0.00, -0.87, 719.0, 960.0)"></image><image xlink:href="../../45D36621-484C-4026-80EC-FDBD73C2A2AB/assets/923CE3E752E9A611681D8CB028AA19A7.png" width="270.00" height="312.00" transform="matrix(0.86, 0.00, -0.00, -0.87, 593.0, 744.0)"></image><image xlink:href="../../45D36621-484C-4026-80EC-FDBD73C2A2AB/assets/8FD4EF6EDDDE8E3F271FC2A40D163BC4.png" width="972.00" height="454.00" transform="matrix(0.24, 0.00, -0.00, -0.24, 592.6, 474.4)"></image><image xlink:href="../../45D36621-484C-4026-80EC-FDBD73C2A2AB/assets/0B8FB1099E7C8162409FBD26888E0587.png" width="271.00" height="313.00" transform="matrix(0.86, 0.00, -0.00, -0.86, 1222.0, 960.0)"></image><image xlink:href="../../45D36621-484C-4026-80EC-FDBD73C2A2AB/assets/0B8FB1099E7C8162409FBD26888E0587.png" width="271.00" height="313.00" transform="matrix(0.86, 0.00, -0.00, -0.86, 1345.0, 744.0)"></image><image xlink:href="../../45D36621-484C-4026-80EC-FDBD73C2A2AB/assets/D50D8236220FB8AF581F5611E5F11D62.png" width="973.00" height="454.00" transform="matrix(0.24, 0.00, -0.00, -0.24, 1345.0, 474.2)"></image><image xlink:href="../../45D36621-484C-4026-80EC-FDBD73C2A2AB/assets/0B8FB1099E7C8162409FBD26888E0587.png" width="271.00" height="313.00" transform="matrix(0.86, 0.00, -0.00, -0.86, 343.0, 744.0)"></image><image xlink:href="../../45D36621-484C-4026-80EC-FDBD73C2A2AB/assets/B03984AEF70065F52C1215A37767B3F8.png" width="973.00" height="454.00" transform="matrix(0.24, 0.00, -0.00, -0.24, 343.1, 474.2)"></image></g></svg>