<?xml version="1.0" encoding="UTF-8"?><svg xmlns="http://www.w3.org/2000/svg" xmlns:xlink="http://www.w3.org/1999/xlink" clip-rule="evenodd" stroke-miterlimit="10" viewBox="0 0 459 43"><desc>SVG generated by Keynote</desc><defs></defs><g transform="matrix(1.00, 0.00, -0.00, -1.00, 0.0, 43.0)"><text xml:space="preserve" font-family="Arvo,Arvo" font-size="50.0" fill="#000000" transform="matrix(1.00, 0.00, -0.00, -1.00, -0.6, 2.8)">F</text><text xml:space="preserve" font-family="Arvo,Arvo" font-size="50.0" fill="#000000" transform="matrix(1.00, 0.00, -0.00, -1.00, 29.7, 2.8)">i</text><text xml:space="preserve" font-family="Arvo,Arvo" font-size="50.0" fill="#000000" transform="matrix(1.00, 0.00, -0.00, -1.00, 45.7, 2.8)">n</text><text xml:space="preserve" font-family="Arvo,Arvo" font-size="50.0" fill="#000000" transform="matrix(1.00, 0.00, -0.00, -1.00, 79.1, 2.8)">d</text><text xml:space="preserve" font-family="Arvo,Arvo" font-size="50.0" fill="#000000" transform="matrix(1.00, 0.00, -0.00, -1.00, 110.0, 2.8)"> </text><text xml:space="preserve" font-family="Arvo,Arvo" font-size="50.0" fill="#000000" transform="matrix(1.00, 0.00, -0.00, -1.00, 121.0, 2.8)">a</text><text xml:space="preserve" font-family="Arvo,Arvo" font-size="50.0" fill="#000000" transform="matrix(1.00, 0.00, -0.00, -1.00, 148.3, 2.8)"> </text><text xml:space="preserve" font-family="Arvo,Arvo" font-size="50.0" fill="#000000" transform="matrix(1.00, 0.00, -0.00, -1.00, 159.2, 2.8)">D</text><text xml:space="preserve" font-family="Arvo,Arvo" font-size="50.0" fill="#000000" transform="matrix(1.00, 0.00, -0.00, -1.00, 196.0, 2.8)">r</text><text xml:space="preserve" font-family="Arvo,Arvo" font-size="50.0" fill="#000000" transform="matrix(1.00, 0.00, -0.00, -1.00, 219.4, 2.8)">i</text><text xml:space="preserve" font-family="Arvo,Arvo" font-size="50.0" fill="#000000" transform="matrix(1.00, 0.00, -0.00, -1.00, 235.5, 2.8)">l</text><text xml:space="preserve" font-family="Arvo,Arvo" font-size="50.0" fill="#000000" transform="matrix(1.00, 0.00, -0.00, -1.00, 251.7, 2.8)">l</text><text xml:space="preserve" font-family="Arvo,Arvo" font-size="50.0" fill="#000000" transform="matrix(1.00, 0.00, -0.00, -1.00, 268.0, 2.8)"> </text><text xml:space="preserve" font-family="Arvo,Arvo" font-size="50.0" fill="#51A7F9" transform="matrix(1.00, 0.00, -0.00, -1.00, 279.0, 2.8)">u</text><text xml:space="preserve" font-family="Arvo,Arvo" font-size="50.0" fill="#51A7F9" transform="matrix(1.00, 0.00, -0.00, -1.00, 312.0, 2.8)">s</text><text xml:space="preserve" font-family="Arvo,Arvo" font-size="50.0" fill="#51A7F9" transform="matrix(1.00, 0.00, -0.00, -1.00, 336.2, 2.8)">e</text><text xml:space="preserve" font-family="Arvo,Arvo" font-size="50.0" fill="#51A7F9" transform="matrix(1.00, 0.00, -0.00, -1.00, 364.9, 2.8)">f</text><text xml:space="preserve" font-family="Arvo,Arvo" font-size="50.0" fill="#51A7F9" transform="matrix(1.00, 0.00, -0.00, -1.00, 383.1, 2.8)">u</text><text xml:space="preserve" font-family="Arvo,Arvo" font-size="50.0" fill="#51A7F9" transform="matrix(1.00, 0.00, -0.00, -1.00, 416.0, 2.8)">l</text><text xml:space="preserve" font-family="Arvo,Arvo" font-size="50.0" fill="#000000" transform="matrix(1.00, 0.00, -0.00, -1.00, 432.3, 2.8)">?</text></g></svg>