<?xml version="1.0" encoding="UTF-8"?><svg xmlns="http://www.w3.org/2000/svg" xmlns:xlink="http://www.w3.org/1999/xlink" clip-rule="evenodd" stroke-miterlimit="10" viewBox="0 0 1920 1080"><desc>SVG generated by Keynote</desc><defs></defs><g transform="matrix(1.00, 0.00, -0.00, -1.00, 0.0, 1080.0)"><path d="M 0.0 0.0 L 1920.0 0.0 L 1920.0 1080.0 L 0.0 1080.0 Z M 0.0 0.0 " fill="#FEFFFF"></path><path d="M 460.0 888.0 L 911.0 888.0 L 911.0 192.0 L 460.0 192.0 Z M 460.0 887.7 " fill="#EEF7FF"></path><text xml:space="preserve" font-family="Arvo,Arvo" font-size="50.0" fill="#000000" transform="matrix(1.00, 0.00, -0.00, -1.00, 966.4, 502.8)">F</text><text xml:space="preserve" font-family="Arvo,Arvo" font-size="50.0" fill="#000000" transform="matrix(1.00, 0.00, -0.00, -1.00, 996.7, 502.8)">i</text><text xml:space="preserve" font-family="Arvo,Arvo" font-size="50.0" fill="#000000" transform="matrix(1.00, 0.00, -0.00, -1.00, 1012.7, 502.8)">n</text><text xml:space="preserve" font-family="Arvo,Arvo" font-size="50.0" fill="#000000" transform="matrix(1.00, 0.00, -0.00, -1.00, 1046.1, 502.8)">d</text><text xml:space="preserve" font-family="Arvo,Arvo" font-size="50.0" fill="#000000" transform="matrix(1.00, 0.00, -0.00, -1.00, 1077.0, 502.8)"> </text><text xml:space="preserve" font-family="Arvo,Arvo" font-size="50.0" fill="#000000" transform="matrix(1.00, 0.00, -0.00, -1.00, 1088.0, 502.8)">a</text><text xml:space="preserve" font-family="Arvo,Arvo" font-size="50.0" fill="#000000" transform="matrix(1.00, 0.00, -0.00, -1.00, 1115.3, 502.8)"> </text><text xml:space="preserve" font-family="Arvo,Arvo" font-size="50.0" fill="#000000" transform="matrix(1.00, 0.00, -0.00, -1.00, 1126.2, 502.8)">D</text><text xml:space="preserve" font-family="Arvo,Arvo" font-size="50.0" fill="#000000" transform="matrix(1.00, 0.00, -0.00, -1.00, 1163.0, 502.8)">r</text><text xml:space="preserve" font-family="Arvo,Arvo" font-size="50.0" fill="#000000" transform="matrix(1.00, 0.00, -0.00, -1.00, 1186.4, 502.8)">i</text><text xml:space="preserve" font-family="Arvo,Arvo" font-size="50.0" fill="#000000" transform="matrix(1.00, 0.00, -0.00, -1.00, 1202.5, 502.8)">l</text><text xml:space="preserve" font-family="Arvo,Arvo" font-size="50.0" fill="#000000" transform="matrix(1.00, 0.00, -0.00, -1.00, 1218.7, 502.8)">l</text><text xml:space="preserve" font-family="Arvo,Arvo" font-size="50.0" fill="#000000" transform="matrix(1.00, 0.00, -0.00, -1.00, 1235.0, 502.8)"> </text><text xml:space="preserve" font-family="Arvo,Arvo" font-size="50.0" fill="#51A7F9" transform="matrix(1.00, 0.00, -0.00, -1.00, 1246.0, 502.8)">u</text><text xml:space="preserve" font-family="Arvo,Arvo" font-size="50.0" fill="#51A7F9" transform="matrix(1.00, 0.00, -0.00, -1.00, 1279.0, 502.8)">s</text><text xml:space="preserve" font-family="Arvo,Arvo" font-size="50.0" fill="#51A7F9" transform="matrix(1.00, 0.00, -0.00, -1.00, 1303.2, 502.8)">e</text><text xml:space="preserve" font-family="Arvo,Arvo" font-size="50.0" fill="#51A7F9" transform="matrix(1.00, 0.00, -0.00, -1.00, 1331.9, 502.8)">f</text><text xml:space="preserve" font-family="Arvo,Arvo" font-size="50.0" fill="#51A7F9" transform="matrix(1.00, 0.00, -0.00, -1.00, 1350.1, 502.8)">u</text><text xml:space="preserve" font-family="Arvo,Arvo" font-size="50.0" fill="#51A7F9" transform="matrix(1.00, 0.00, -0.00, -1.00, 1383.0, 502.8)">l</text><text xml:space="preserve" font-family="Arvo,Arvo" font-size="50.0" fill="#000000" transform="matrix(1.00, 0.00, -0.00, -1.00, 1399.3, 502.8)">?</text><text xml:space="preserve" font-family="Arvo,Arvo" font-size="50.0" fill="#000000" transform="matrix(1.00, 0.00, -0.00, -1.00, 964.6, 412.9)">U</text><text xml:space="preserve" font-family="Arvo,Arvo" font-size="50.0" fill="#000000" transform="matrix(1.00, 0.00, -0.00, -1.00, 1002.4, 412.9)">p</text><text xml:space="preserve" font-family="Arvo,Arvo" font-size="50.0" fill="#000000" transform="matrix(1.00, 0.00, -0.00, -1.00, 1032.9, 412.9)">v</text><text xml:space="preserve" font-family="Arvo,Arvo" font-size="50.0" fill="#000000" transform="matrix(1.00, 0.00, -0.00, -1.00, 1059.7, 412.9)">o</text><text xml:space="preserve" font-family="Arvo,Arvo" font-size="50.0" fill="#000000" transform="matrix(1.00, 0.00, -0.00, -1.00, 1089.6, 412.9)">t</text><text xml:space="preserve" font-family="Arvo,Arvo" font-size="50.0" fill="#000000" transform="matrix(1.00, 0.00, -0.00, -1.00, 1108.2, 412.9)">e</text><text xml:space="preserve" font-family="Arvo,Arvo" font-size="50.0" fill="#000000" transform="matrix(1.00, 0.00, -0.00, -1.00, 1136.9, 412.9)"> </text><text xml:space="preserve" font-family="Arvo,Arvo" font-size="50.0" fill="#000000" transform="matrix(1.00, 0.00, -0.00, -1.00, 1147.8, 412.9)">i</text><text xml:space="preserve" font-family="Arvo,Arvo" font-size="50.0" fill="#000000" transform="matrix(1.00, 0.00, -0.00, -1.00, 1163.8, 412.9)">t</text><text xml:space="preserve" font-family="Arvo,Arvo" font-size="50.0" fill="#000000" transform="matrix(1.00, 0.00, -0.00, -1.00, 1182.4, 412.9)">.</text><image xlink:href="../../03AB6327-510E-4B3D-A120-CDF292BC7862/assets/81FE511B9B689555E499C0287BA6FA8F.png" width="256.00" height="256.00" transform="matrix(0.96, 0.00, -0.00, -0.95, 563.0, 802.0)"></image><g><clipPath id="clip0x6000010abb80"><path d="M 580.5 467.8 L 790.4 467.8 L 790.4 519.0 L 580.5 519.0 Z M 580.5 467.8 "></path></clipPath><g clip-path="url(#clip0x6000010abb80)"><path d="M 581.0 518.0 L 789.0 518.0 L 789.0 469.0 L 581.0 469.0 Z M 581.5 518.0 " fill="#DCDDE0"></path></g></g><g><clipPath id="clip0x6000010abbe0"><path d="M 580.7 463.0 L 656.7 463.0 L 656.7 548.0 L 580.7 548.0 Z M 580.7 463.0 "></path></clipPath><g clip-path="url(#clip0x6000010abbe0)"><text xml:space="preserve" font-family="Helvetica-Light,Helvetica" font-size="50.0" fill="#FEFFFE" transform="matrix(1.00, 0.00, -0.00, -1.00, 593.7, 487.0)">…</text></g></g><g><clipPath id="clip0x6000010ab9a0"><path d="M 590.4 376.7 L 780.5 376.7 L 780.5 443.5 L 590.4 443.5 Z M 590.4 376.7 "></path></clipPath><g clip-path="url(#clip0x6000010ab9a0)"><path d="M 591.0 443.0 L 779.0 443.0 L 779.0 378.0 L 591.0 378.0 Z M 591.4 442.5 " fill="#6FBF40"></path></g></g><g><clipPath id="clip0x6000010ac660"><path d="M 581.8 380.9 L 789.0 380.9 L 789.0 439.3 L 581.8 439.3 Z M 581.8 380.9 "></path></clipPath><g clip-path="url(#clip0x6000010ac660)"><text xml:space="preserve" font-family="Arvo,Arvo" font-size="26.0" fill="#FEFFFE" transform="matrix(1.00, 0.00, -0.00, -1.00, 618.0, 401.4)">1</text><text xml:space="preserve" font-family="Arvo,Arvo" font-size="26.0" fill="#FEFFFE" transform="matrix(1.00, 0.00, -0.00, -1.00, 628.8, 401.4)">9</text><text xml:space="preserve" font-family="Arvo,Arvo" font-size="26.0" fill="#FEFFFE" transform="matrix(1.00, 0.00, -0.00, -1.00, 645.0, 401.4)"> </text><text xml:space="preserve" font-family="Arvo,Arvo" font-size="26.0" fill="#FEFFFE" transform="matrix(1.00, 0.00, -0.00, -1.00, 650.6, 401.4)">U</text><text xml:space="preserve" font-family="Arvo,Arvo" font-size="26.0" fill="#FEFFFE" transform="matrix(1.00, 0.00, -0.00, -1.00, 670.3, 401.4)">p</text><text xml:space="preserve" font-family="Arvo,Arvo" font-size="26.0" fill="#FEFFFE" transform="matrix(1.00, 0.00, -0.00, -1.00, 686.2, 401.4)">v</text><text xml:space="preserve" font-family="Arvo,Arvo" font-size="26.0" fill="#FEFFFE" transform="matrix(1.00, 0.00, -0.00, -1.00, 700.1, 401.4)">o</text><text xml:space="preserve" font-family="Arvo,Arvo" font-size="26.0" fill="#FEFFFE" transform="matrix(1.00, 0.00, -0.00, -1.00, 715.7, 401.4)">t</text><text xml:space="preserve" font-family="Arvo,Arvo" font-size="26.0" fill="#FEFFFE" transform="matrix(1.00, 0.00, -0.00, -1.00, 725.4, 401.4)">e</text><text xml:space="preserve" font-family="Arvo,Arvo" font-size="26.0" fill="#FEFFFE" transform="matrix(1.00, 0.00, -0.00, -1.00, 740.3, 401.4)">s</text></g></g><g><clipPath id="clip0x6000010ad8c0"><path d="M 953.1 793.1 L 1461.0 793.1 L 1461.0 889.3 L 953.1 889.3 Z M 953.1 793.1 "></path></clipPath><g clip-path="url(#clip0x6000010ad8c0)"><path d="M 954.0 888.0 L 1460.0 888.0 L 1460.0 794.0 L 954.0 794.0 Z M 954.1 888.3 " fill="#EEF1F3"></path></g></g><g><clipPath id="clip0x6000010adb00"><path d="M 953.1 703.0 L 1274.6 703.0 L 1274.6 754.2 L 953.1 754.2 Z M 953.1 703.0 "></path></clipPath><g clip-path="url(#clip0x6000010adb00)"><path d="M 954.0 753.0 L 1274.0 753.0 L 1274.0 704.0 L 954.0 704.0 Z M 954.1 753.2 " fill="#EEF1F3"></path></g></g><g><clipPath id="clip0x6000010add40"><path d="M 953.1 624.0 L 1318.0 624.0 L 1318.0 675.2 L 953.1 675.2 Z M 953.1 624.0 "></path></clipPath><g clip-path="url(#clip0x6000010add40)"><path d="M 954.0 674.0 L 1317.0 674.0 L 1317.0 625.0 L 954.0 625.0 Z M 954.1 674.2 " fill="#EEF1F3"></path></g></g></g></svg>