<?xml version="1.0" encoding="UTF-8"?><svg xmlns="http://www.w3.org/2000/svg" xmlns:xlink="http://www.w3.org/1999/xlink" clip-rule="evenodd" stroke-miterlimit="10" viewBox="0 0 203 68"><desc>SVG generated by Keynote</desc><defs></defs><g transform="matrix(1.00, 0.00, -0.00, -1.00, 0.0, 68.0)"><g><clipPath id="clip0x6000010a2460"><path d="M 6.4 0.7 L 196.5 0.7 L 196.5 67.5 L 6.4 67.5 Z M 6.4 0.7 "></path></clipPath><g clip-path="url(#clip0x6000010a2460)"><path d="M 7.0 67.0 L 195.0 67.0 L 195.0 2.0 L 7.0 2.0 Z M 7.4 66.5 " fill="#6FBF40"></path></g></g><g><clipPath id="clip0x6000010a2400"><path d="M -2.2 4.9 L 205.0 4.9 L 205.0 63.3 L -2.2 63.3 Z M -2.2 4.9 "></path></clipPath><g clip-path="url(#clip0x6000010a2400)"><text xml:space="preserve" font-family="Arvo,Arvo" font-size="26.0" fill="#FEFFFE" transform="matrix(1.00, 0.00, -0.00, -1.00, 34.0, 25.4)">1</text><text xml:space="preserve" font-family="Arvo,Arvo" font-size="26.0" fill="#FEFFFE" transform="matrix(1.00, 0.00, -0.00, -1.00, 44.8, 25.4)">9</text><text xml:space="preserve" font-family="Arvo,Arvo" font-size="26.0" fill="#FEFFFE" transform="matrix(1.00, 0.00, -0.00, -1.00, 61.0, 25.4)"> </text><text xml:space="preserve" font-family="Arvo,Arvo" font-size="26.0" fill="#FEFFFE" transform="matrix(1.00, 0.00, -0.00, -1.00, 66.6, 25.4)">U</text><text xml:space="preserve" font-family="Arvo,Arvo" font-size="26.0" fill="#FEFFFE" transform="matrix(1.00, 0.00, -0.00, -1.00, 86.3, 25.4)">p</text><text xml:space="preserve" font-family="Arvo,Arvo" font-size="26.0" fill="#FEFFFE" transform="matrix(1.00, 0.00, -0.00, -1.00, 102.2, 25.4)">v</text><text xml:space="preserve" font-family="Arvo,Arvo" font-size="26.0" fill="#FEFFFE" transform="matrix(1.00, 0.00, -0.00, -1.00, 116.1, 25.4)">o</text><text xml:space="preserve" font-family="Arvo,Arvo" font-size="26.0" fill="#FEFFFE" transform="matrix(1.00, 0.00, -0.00, -1.00, 131.7, 25.4)">t</text><text xml:space="preserve" font-family="Arvo,Arvo" font-size="26.0" fill="#FEFFFE" transform="matrix(1.00, 0.00, -0.00, -1.00, 141.4, 25.4)">e</text><text xml:space="preserve" font-family="Arvo,Arvo" font-size="26.0" fill="#FEFFFE" transform="matrix(1.00, 0.00, -0.00, -1.00, 156.3, 25.4)">s</text></g></g></g></svg>