<?xml version="1.0" encoding="UTF-8"?><svg xmlns="http://www.w3.org/2000/svg" xmlns:xlink="http://www.w3.org/1999/xlink" clip-rule="evenodd" stroke-miterlimit="10" viewBox="0 0 509 266"><desc>SVG generated by Keynote</desc><defs></defs><g transform="matrix(1.00, 0.00, -0.00, -1.00, 0.0, 266.0)"><g><clipPath id="clip0x6000010a3120"><path d="M 0.1 169.1 L 508.0 169.1 L 508.0 265.3 L 0.1 265.3 Z M 0.1 169.1 "></path></clipPath><g clip-path="url(#clip0x6000010a3120)"><path d="M 1.0 264.0 L 507.0 264.0 L 507.0 170.0 L 1.0 170.0 Z M 1.1 264.3 " fill="#EEF1F3"></path></g></g><g><clipPath id="clip0x6000010a55e0"><path d="M 0.1 79.0 L 321.6 79.0 L 321.6 130.2 L 0.1 130.2 Z M 0.1 79.0 "></path></clipPath><g clip-path="url(#clip0x6000010a55e0)"><path d="M 1.0 129.0 L 321.0 129.0 L 321.0 80.0 L 1.0 80.0 Z M 1.1 129.2 " fill="#EEF1F3"></path></g></g><g><clipPath id="clip0x6000010a5340"><path d="M 0.1 0.0 L 365.0 0.0 L 365.0 51.2 L 0.1 51.2 Z M 0.1 0.0 "></path></clipPath><g clip-path="url(#clip0x6000010a5340)"><path d="M 1.0 50.0 L 364.0 50.0 L 364.0 1.0 L 1.0 1.0 Z M 1.1 50.2 " fill="#EEF1F3"></path></g></g></g></svg>