<?xml version="1.0" encoding="UTF-8"?><svg xmlns="http://www.w3.org/2000/svg" xmlns:xlink="http://www.w3.org/1999/xlink" clip-rule="evenodd" stroke-miterlimit="10" viewBox="0 0 1920 1080"><desc>SVG generated by Keynote</desc><defs></defs><g transform="matrix(1.00, 0.00, -0.00, -1.00, 0.0, 1080.0)"><path d="M 0.0 0.0 L 1920.0 0.0 L 1920.0 1080.0 L 0.0 1080.0 Z M 0.0 0.0 " fill="#FEFFFF"></path><path d="M 1260.3 688.9 L 1392.0 639.4 L 1384.6 619.9 L 1253.0 669.4 Z M 1260.3 688.9 " fill="#51A7F9"></path><path d="M 751.4 629.7 L 883.0 580.2 L 875.7 560.8 L 744.1 610.3 Z M 751.4 629.7 " fill="#51A7F9"></path><path d="M 975.2 570.3 L 1143.6 696.6 L 1156.6 679.3 L 988.2 553.0 Z M 975.2 570.3 " fill="#51A7F9"></path><path d="M 526.9 545.3 L 639.4 629.7 L 651.9 613.1 L 539.4 528.7 Z M 526.9 545.3 " fill="#51A7F9"></path><text xml:space="preserve" font-family="Arvo,Arvo" font-size="50.0" fill="#000000" transform="matrix(1.00, 0.00, -0.00, -1.00, 467.2, 885.2)">D</text><text xml:space="preserve" font-family="Arvo,Arvo" font-size="50.0" fill="#000000" transform="matrix(1.00, 0.00, -0.00, -1.00, 504.0, 885.2)">r</text><text xml:space="preserve" font-family="Arvo,Arvo" font-size="50.0" fill="#000000" transform="matrix(1.00, 0.00, -0.00, -1.00, 527.4, 885.2)">i</text><text xml:space="preserve" font-family="Arvo,Arvo" font-size="50.0" fill="#000000" transform="matrix(1.00, 0.00, -0.00, -1.00, 543.5, 885.2)">l</text><text xml:space="preserve" font-family="Arvo,Arvo" font-size="50.0" fill="#000000" transform="matrix(1.00, 0.00, -0.00, -1.00, 559.7, 885.2)">l</text><text xml:space="preserve" font-family="Arvo,Arvo" font-size="50.0" fill="#000000" transform="matrix(1.00, 0.00, -0.00, -1.00, 576.0, 885.2)"> </text><text xml:space="preserve" font-family="Arvo,Arvo" font-size="50.0" fill="#000000" transform="matrix(1.00, 0.00, -0.00, -1.00, 586.9, 885.2)">i</text><text xml:space="preserve" font-family="Arvo,Arvo" font-size="50.0" fill="#000000" transform="matrix(1.00, 0.00, -0.00, -1.00, 602.9, 885.2)">s</text><text xml:space="preserve" font-family="Arvo,Arvo" font-size="50.0" fill="#000000" transform="matrix(1.00, 0.00, -0.00, -1.00, 627.1, 885.2)"> </text><text xml:space="preserve" font-family="Arvo,Arvo" font-size="50.0" fill="#000000" transform="matrix(1.00, 0.00, -0.00, -1.00, 638.1, 885.2)">f</text><text xml:space="preserve" font-family="Arvo,Arvo" font-size="50.0" fill="#000000" transform="matrix(1.00, 0.00, -0.00, -1.00, 656.3, 885.2)">o</text><text xml:space="preserve" font-family="Arvo,Arvo" font-size="50.0" fill="#000000" transform="matrix(1.00, 0.00, -0.00, -1.00, 686.1, 885.2)">r</text><text xml:space="preserve" font-family="Arvo,Arvo" font-size="50.0" fill="#000000" transform="matrix(1.00, 0.00, -0.00, -1.00, 709.6, 885.2)"> </text><text xml:space="preserve" font-family="Arvo,Arvo" font-size="50.0" fill="#000000" transform="matrix(1.00, 0.00, -0.00, -1.00, 720.5, 885.2)">t</text><text xml:space="preserve" font-family="Arvo,Arvo" font-size="50.0" fill="#000000" transform="matrix(1.00, 0.00, -0.00, -1.00, 739.1, 885.2)">h</text><text xml:space="preserve" font-family="Arvo,Arvo" font-size="50.0" fill="#000000" transform="matrix(1.00, 0.00, -0.00, -1.00, 772.1, 885.2)">e</text><text xml:space="preserve" font-family="Arvo,Arvo" font-size="50.0" fill="#000000" transform="matrix(1.00, 0.00, -0.00, -1.00, 800.8, 885.2)"> </text><text xml:space="preserve" font-family="Arvo,Arvo" font-size="50.0" fill="#51A7F9" transform="matrix(1.00, 0.00, -0.00, -1.00, 811.9, 885.2)">L</text><text xml:space="preserve" font-family="Arvo,Arvo" font-size="50.0" fill="#51A7F9" transform="matrix(1.00, 0.00, -0.00, -1.00, 843.5, 885.2)">e</text><text xml:space="preserve" font-family="Arvo,Arvo" font-size="50.0" fill="#51A7F9" transform="matrix(1.00, 0.00, -0.00, -1.00, 872.2, 885.2)">a</text><text xml:space="preserve" font-family="Arvo,Arvo" font-size="50.0" fill="#51A7F9" transform="matrix(1.00, 0.00, -0.00, -1.00, 899.6, 885.2)">r</text><text xml:space="preserve" font-family="Arvo,Arvo" font-size="50.0" fill="#51A7F9" transform="matrix(1.00, 0.00, -0.00, -1.00, 923.0, 885.2)">n</text><text xml:space="preserve" font-family="Arvo,Arvo" font-size="50.0" fill="#51A7F9" transform="matrix(1.00, 0.00, -0.00, -1.00, 956.3, 885.2)">e</text><text xml:space="preserve" font-family="Arvo,Arvo" font-size="50.0" fill="#51A7F9" transform="matrix(1.00, 0.00, -0.00, -1.00, 985.0, 885.2)">r</text><text xml:space="preserve" font-family="Arvo,Arvo" font-size="50.0" fill="#51A7F9" transform="matrix(1.00, 0.00, -0.00, -1.00, 1008.4, 885.2)">s</text><text xml:space="preserve" font-family="Arvo,Arvo" font-size="50.0" fill="#000000" transform="matrix(1.00, 0.00, -0.00, -1.00, 1032.7, 885.2)"> </text><text xml:space="preserve" font-family="Arvo,Arvo" font-size="50.0" fill="#000000" transform="matrix(1.00, 0.00, -0.00, -1.00, 1043.7, 885.2)">a</text><text xml:space="preserve" font-family="Arvo,Arvo" font-size="50.0" fill="#000000" transform="matrix(1.00, 0.00, -0.00, -1.00, 1071.0, 885.2)">n</text><text xml:space="preserve" font-family="Arvo,Arvo" font-size="50.0" fill="#000000" transform="matrix(1.00, 0.00, -0.00, -1.00, 1104.4, 885.2)">d</text><text xml:space="preserve" font-family="Arvo,Arvo" font-size="50.0" fill="#000000" transform="matrix(1.00, 0.00, -0.00, -1.00, 1135.3, 885.2)"> </text><text xml:space="preserve" font-family="Arvo,Arvo" font-size="50.0" fill="#000000" transform="matrix(1.00, 0.00, -0.00, -1.00, 1146.2, 885.2)">t</text><text xml:space="preserve" font-family="Arvo,Arvo" font-size="50.0" fill="#000000" transform="matrix(1.00, 0.00, -0.00, -1.00, 1164.8, 885.2)">h</text><text xml:space="preserve" font-family="Arvo,Arvo" font-size="50.0" fill="#000000" transform="matrix(1.00, 0.00, -0.00, -1.00, 1197.9, 885.2)">e</text><text xml:space="preserve" font-family="Arvo,Arvo" font-size="50.0" fill="#000000" transform="matrix(1.00, 0.00, -0.00, -1.00, 1226.6, 885.2)"> </text><text xml:space="preserve" font-family="Arvo,Arvo" font-size="50.0" fill="#51A7F9" transform="matrix(1.00, 0.00, -0.00, -1.00, 1237.6, 885.2)">L</text><text xml:space="preserve" font-family="Arvo,Arvo" font-size="50.0" fill="#51A7F9" transform="matrix(1.00, 0.00, -0.00, -1.00, 1269.2, 885.2)">e</text><text xml:space="preserve" font-family="Arvo,Arvo" font-size="50.0" fill="#51A7F9" transform="matrix(1.00, 0.00, -0.00, -1.00, 1297.9, 885.2)">a</text><text xml:space="preserve" font-family="Arvo,Arvo" font-size="50.0" fill="#51A7F9" transform="matrix(1.00, 0.00, -0.00, -1.00, 1325.2, 885.2)">r</text><text xml:space="preserve" font-family="Arvo,Arvo" font-size="50.0" fill="#51A7F9" transform="matrix(1.00, 0.00, -0.00, -1.00, 1348.6, 885.2)">n</text><text xml:space="preserve" font-family="Arvo,Arvo" font-size="50.0" fill="#51A7F9" transform="matrix(1.00, 0.00, -0.00, -1.00, 1382.0, 885.2)">e</text><text xml:space="preserve" font-family="Arvo,Arvo" font-size="50.0" fill="#51A7F9" transform="matrix(1.00, 0.00, -0.00, -1.00, 1410.6, 885.2)">d</text><text xml:space="preserve" font-family="Arvo,Arvo" font-size="50.0" fill="#000000" transform="matrix(1.00, 0.00, -0.00, -1.00, 1441.7, 885.2)">.</text><text xml:space="preserve" font-family="Arvo,Arvo" font-size="50.0" fill="#000000" transform="matrix(1.00, 0.00, -0.00, -1.00, 527.5, 288.1)">W</text><text xml:space="preserve" font-family="Arvo,Arvo" font-size="50.0" fill="#000000" transform="matrix(1.00, 0.00, -0.00, -1.00, 590.0, 288.1)">h</text><text xml:space="preserve" font-family="Arvo,Arvo" font-size="50.0" fill="#000000" transform="matrix(1.00, 0.00, -0.00, -1.00, 623.0, 288.1)">e</text><text xml:space="preserve" font-family="Arvo,Arvo" font-size="50.0" fill="#000000" transform="matrix(1.00, 0.00, -0.00, -1.00, 651.7, 288.1)">n</text><text xml:space="preserve" font-family="Arvo,Arvo" font-size="50.0" fill="#000000" transform="matrix(1.00, 0.00, -0.00, -1.00, 685.1, 288.1)"> </text><text xml:space="preserve" font-family="Arvo,Arvo" font-size="50.0" fill="#000000" transform="matrix(1.00, 0.00, -0.00, -1.00, 696.0, 288.1)">y</text><text xml:space="preserve" font-family="Arvo,Arvo" font-size="50.0" fill="#000000" transform="matrix(1.00, 0.00, -0.00, -1.00, 724.7, 288.1)">o</text><text xml:space="preserve" font-family="Arvo,Arvo" font-size="50.0" fill="#000000" transform="matrix(1.00, 0.00, -0.00, -1.00, 754.6, 288.1)">u</text><text xml:space="preserve" font-family="Arvo,Arvo" font-size="50.0" fill="#000000" transform="matrix(1.00, 0.00, -0.00, -1.00, 787.6, 288.1)"> </text><text xml:space="preserve" font-family="Arvo,Arvo" font-size="50.0" fill="#000000" transform="matrix(1.00, 0.00, -0.00, -1.00, 798.5, 288.1)">s</text><text xml:space="preserve" font-family="Arvo,Arvo" font-size="50.0" fill="#000000" transform="matrix(1.00, 0.00, -0.00, -1.00, 822.7, 288.1)">t</text><text xml:space="preserve" font-family="Arvo,Arvo" font-size="50.0" fill="#000000" transform="matrix(1.00, 0.00, -0.00, -1.00, 841.4, 288.1)">a</text><text xml:space="preserve" font-family="Arvo,Arvo" font-size="50.0" fill="#000000" transform="matrix(1.00, 0.00, -0.00, -1.00, 868.7, 288.1)">r</text><text xml:space="preserve" font-family="Arvo,Arvo" font-size="50.0" fill="#000000" transform="matrix(1.00, 0.00, -0.00, -1.00, 892.1, 288.1)">t</text><text xml:space="preserve" font-family="Arvo,Arvo" font-size="50.0" fill="#000000" transform="matrix(1.00, 0.00, -0.00, -1.00, 910.7, 288.1)"> </text><text xml:space="preserve" font-family="Arvo,Arvo" font-size="50.0" fill="#000000" transform="matrix(1.00, 0.00, -0.00, -1.00, 921.6, 288.1)">t</text><text xml:space="preserve" font-family="Arvo,Arvo" font-size="50.0" fill="#000000" transform="matrix(1.00, 0.00, -0.00, -1.00, 940.3, 288.1)">o</text><text xml:space="preserve" font-family="Arvo,Arvo" font-size="50.0" fill="#000000" transform="matrix(1.00, 0.00, -0.00, -1.00, 970.2, 288.1)"> </text><text xml:space="preserve" font-family="Arvo,Arvo" font-size="50.0" fill="#000000" transform="matrix(1.00, 0.00, -0.00, -1.00, 981.1, 288.1)">l</text><text xml:space="preserve" font-family="Arvo,Arvo" font-size="50.0" fill="#000000" transform="matrix(1.00, 0.00, -0.00, -1.00, 997.4, 288.1)">e</text><text xml:space="preserve" font-family="Arvo,Arvo" font-size="50.0" fill="#000000" transform="matrix(1.00, 0.00, -0.00, -1.00, 1026.0, 288.1)">a</text><text xml:space="preserve" font-family="Arvo,Arvo" font-size="50.0" fill="#000000" transform="matrix(1.00, 0.00, -0.00, -1.00, 1053.4, 288.1)">r</text><text xml:space="preserve" font-family="Arvo,Arvo" font-size="50.0" fill="#000000" transform="matrix(1.00, 0.00, -0.00, -1.00, 1076.8, 288.1)">n</text><text xml:space="preserve" font-family="Arvo,Arvo" font-size="50.0" fill="#000000" transform="matrix(1.00, 0.00, -0.00, -1.00, 1110.1, 288.1)"> </text><text xml:space="preserve" font-family="Arvo,Arvo" font-size="50.0" fill="#000000" transform="matrix(1.00, 0.00, -0.00, -1.00, 1121.1, 288.1)">s</text><text xml:space="preserve" font-family="Arvo,Arvo" font-size="50.0" fill="#000000" transform="matrix(1.00, 0.00, -0.00, -1.00, 1145.3, 288.1)">o</text><text xml:space="preserve" font-family="Arvo,Arvo" font-size="50.0" fill="#000000" transform="matrix(1.00, 0.00, -0.00, -1.00, 1175.2, 288.1)">m</text><text xml:space="preserve" font-family="Arvo,Arvo" font-size="50.0" fill="#000000" transform="matrix(1.00, 0.00, -0.00, -1.00, 1225.3, 288.1)">e</text><text xml:space="preserve" font-family="Arvo,Arvo" font-size="50.0" fill="#000000" transform="matrix(1.00, 0.00, -0.00, -1.00, 1253.9, 288.1)">t</text><text xml:space="preserve" font-family="Arvo,Arvo" font-size="50.0" fill="#000000" transform="matrix(1.00, 0.00, -0.00, -1.00, 1272.5, 288.1)">h</text><text xml:space="preserve" font-family="Arvo,Arvo" font-size="50.0" fill="#000000" transform="matrix(1.00, 0.00, -0.00, -1.00, 1305.6, 288.1)">i</text><text xml:space="preserve" font-family="Arvo,Arvo" font-size="50.0" fill="#000000" transform="matrix(1.00, 0.00, -0.00, -1.00, 1321.6, 288.1)">n</text><text xml:space="preserve" font-family="Arvo,Arvo" font-size="50.0" fill="#000000" transform="matrix(1.00, 0.00, -0.00, -1.00, 1355.0, 288.1)">g</text><text xml:space="preserve" font-family="Arvo,Arvo" font-size="50.0" fill="#000000" transform="matrix(1.00, 0.00, -0.00, -1.00, 1384.3, 288.1)">,</text><text xml:space="preserve" font-family="Arvo,Arvo" font-size="50.0" fill="#000000" transform="matrix(1.00, 0.00, -0.00, -1.00, 1392.4, 288.1)"> </text><text xml:space="preserve" font-family="Arvo,Arvo" font-size="50.0" fill="#51A7F9" transform="matrix(1.00, 0.00, -0.00, -1.00, 751.3, 227.1)">C</text><text xml:space="preserve" font-family="Arvo,Arvo" font-size="50.0" fill="#51A7F9" transform="matrix(1.00, 0.00, -0.00, -1.00, 788.1, 227.1)">r</text><text xml:space="preserve" font-family="Arvo,Arvo" font-size="50.0" fill="#51A7F9" transform="matrix(1.00, 0.00, -0.00, -1.00, 811.6, 227.1)">e</text><text xml:space="preserve" font-family="Arvo,Arvo" font-size="50.0" fill="#51A7F9" transform="matrix(1.00, 0.00, -0.00, -1.00, 840.2, 227.1)">a</text><text xml:space="preserve" font-family="Arvo,Arvo" font-size="50.0" fill="#51A7F9" transform="matrix(1.00, 0.00, -0.00, -1.00, 867.6, 227.1)">t</text><text xml:space="preserve" font-family="Arvo,Arvo" font-size="50.0" fill="#51A7F9" transform="matrix(1.00, 0.00, -0.00, -1.00, 886.2, 227.1)">e</text><text xml:space="preserve" font-family="Arvo,Arvo" font-size="50.0" fill="#51A7F9" transform="matrix(1.00, 0.00, -0.00, -1.00, 914.8, 227.1)"> </text><text xml:space="preserve" font-family="Arvo,Arvo" font-size="50.0" fill="#51A7F9" transform="matrix(1.00, 0.00, -0.00, -1.00, 925.8, 227.1)">y</text><text xml:space="preserve" font-family="Arvo,Arvo" font-size="50.0" fill="#51A7F9" transform="matrix(1.00, 0.00, -0.00, -1.00, 954.5, 227.1)">o</text><text xml:space="preserve" font-family="Arvo,Arvo" font-size="50.0" fill="#51A7F9" transform="matrix(1.00, 0.00, -0.00, -1.00, 984.4, 227.1)">u</text><text xml:space="preserve" font-family="Arvo,Arvo" font-size="50.0" fill="#51A7F9" transform="matrix(1.00, 0.00, -0.00, -1.00, 1017.3, 227.1)">r</text><text xml:space="preserve" font-family="Arvo,Arvo" font-size="50.0" fill="#51A7F9" transform="matrix(1.00, 0.00, -0.00, -1.00, 1040.7, 227.1)"> </text><text xml:space="preserve" font-family="Arvo,Arvo" font-size="50.0" fill="#51A7F9" transform="matrix(1.00, 0.00, -0.00, -1.00, 1051.7, 227.1)">D</text><text xml:space="preserve" font-family="Arvo,Arvo" font-size="50.0" fill="#51A7F9" transform="matrix(1.00, 0.00, -0.00, -1.00, 1088.4, 227.1)">r</text><text xml:space="preserve" font-family="Arvo,Arvo" font-size="50.0" fill="#51A7F9" transform="matrix(1.00, 0.00, -0.00, -1.00, 1111.9, 227.1)">i</text><text xml:space="preserve" font-family="Arvo,Arvo" font-size="50.0" fill="#51A7F9" transform="matrix(1.00, 0.00, -0.00, -1.00, 1127.9, 227.1)">l</text><text xml:space="preserve" font-family="Arvo,Arvo" font-size="50.0" fill="#51A7F9" transform="matrix(1.00, 0.00, -0.00, -1.00, 1144.2, 227.1)">l</text><text xml:space="preserve" font-family="Arvo,Arvo" font-size="50.0" fill="#000000" transform="matrix(1.00, 0.00, -0.00, -1.00, 1160.6, 227.1)">,</text><text xml:space="preserve" font-family="Arvo,Arvo" font-size="50.0" fill="#000000" transform="matrix(1.00, 0.00, -0.00, -1.00, 1168.7, 227.1)"> </text><text xml:space="preserve" font-family="Arvo,Arvo" font-size="50.0" fill="#000000" transform="matrix(1.00, 0.00, -0.00, -1.00, 595.8, 166.1)">F</text><text xml:space="preserve" font-family="Arvo,Arvo" font-size="50.0" fill="#000000" transform="matrix(1.00, 0.00, -0.00, -1.00, 623.5, 166.1)">o</text><text xml:space="preserve" font-family="Arvo,Arvo" font-size="50.0" fill="#000000" transform="matrix(1.00, 0.00, -0.00, -1.00, 653.4, 166.1)">r</text><text xml:space="preserve" font-family="Arvo,Arvo" font-size="50.0" fill="#000000" transform="matrix(1.00, 0.00, -0.00, -1.00, 676.8, 166.1)"> </text><text xml:space="preserve" font-family="Arvo,Arvo" font-size="50.0" fill="#000000" transform="matrix(1.00, 0.00, -0.00, -1.00, 687.7, 166.1)">o</text><text xml:space="preserve" font-family="Arvo,Arvo" font-size="50.0" fill="#000000" transform="matrix(1.00, 0.00, -0.00, -1.00, 717.6, 166.1)">t</text><text xml:space="preserve" font-family="Arvo,Arvo" font-size="50.0" fill="#000000" transform="matrix(1.00, 0.00, -0.00, -1.00, 736.2, 166.1)">h</text><text xml:space="preserve" font-family="Arvo,Arvo" font-size="50.0" fill="#000000" transform="matrix(1.00, 0.00, -0.00, -1.00, 769.2, 166.1)">e</text><text xml:space="preserve" font-family="Arvo,Arvo" font-size="50.0" fill="#000000" transform="matrix(1.00, 0.00, -0.00, -1.00, 797.9, 166.1)">r</text><text xml:space="preserve" font-family="Arvo,Arvo" font-size="50.0" fill="#000000" transform="matrix(1.00, 0.00, -0.00, -1.00, 821.3, 166.1)">s</text><text xml:space="preserve" font-family="Arvo,Arvo" font-size="50.0" fill="#000000" transform="matrix(1.00, 0.00, -0.00, -1.00, 845.6, 166.1)"> </text><text xml:space="preserve" font-family="Arvo,Arvo" font-size="50.0" fill="#000000" transform="matrix(1.00, 0.00, -0.00, -1.00, 856.5, 166.1)">t</text><text xml:space="preserve" font-family="Arvo,Arvo" font-size="50.0" fill="#000000" transform="matrix(1.00, 0.00, -0.00, -1.00, 875.1, 166.1)">o</text><text xml:space="preserve" font-family="Arvo,Arvo" font-size="50.0" fill="#000000" transform="matrix(1.00, 0.00, -0.00, -1.00, 905.0, 166.1)"> </text><text xml:space="preserve" font-family="Arvo,Arvo" font-size="50.0" fill="#000000" transform="matrix(1.00, 0.00, -0.00, -1.00, 915.9, 166.1)">f</text><text xml:space="preserve" font-family="Arvo,Arvo" font-size="50.0" fill="#000000" transform="matrix(1.00, 0.00, -0.00, -1.00, 934.1, 166.1)">o</text><text xml:space="preserve" font-family="Arvo,Arvo" font-size="50.0" fill="#000000" transform="matrix(1.00, 0.00, -0.00, -1.00, 963.9, 166.1)">l</text><text xml:space="preserve" font-family="Arvo,Arvo" font-size="50.0" fill="#000000" transform="matrix(1.00, 0.00, -0.00, -1.00, 980.2, 166.1)">l</text><text xml:space="preserve" font-family="Arvo,Arvo" font-size="50.0" fill="#000000" transform="matrix(1.00, 0.00, -0.00, -1.00, 996.5, 166.1)">o</text><text xml:space="preserve" font-family="Arvo,Arvo" font-size="50.0" fill="#000000" transform="matrix(1.00, 0.00, -0.00, -1.00, 1026.4, 166.1)">w</text><text xml:space="preserve" font-family="Arvo,Arvo" font-size="50.0" fill="#000000" transform="matrix(1.00, 0.00, -0.00, -1.00, 1066.5, 166.1)"> </text><text xml:space="preserve" font-family="Arvo,Arvo" font-size="50.0" fill="#000000" transform="matrix(1.00, 0.00, -0.00, -1.00, 1077.4, 166.1)">y</text><text xml:space="preserve" font-family="Arvo,Arvo" font-size="50.0" fill="#000000" transform="matrix(1.00, 0.00, -0.00, -1.00, 1106.1, 166.1)">o</text><text xml:space="preserve" font-family="Arvo,Arvo" font-size="50.0" fill="#000000" transform="matrix(1.00, 0.00, -0.00, -1.00, 1136.0, 166.1)">u</text><text xml:space="preserve" font-family="Arvo,Arvo" font-size="50.0" fill="#000000" transform="matrix(1.00, 0.00, -0.00, -1.00, 1169.0, 166.1)">r</text><text xml:space="preserve" font-family="Arvo,Arvo" font-size="50.0" fill="#000000" transform="matrix(1.00, 0.00, -0.00, -1.00, 1192.4, 166.1)"> </text><text xml:space="preserve" font-family="Arvo,Arvo" font-size="50.0" fill="#000000" transform="matrix(1.00, 0.00, -0.00, -1.00, 1203.4, 166.1)">p</text><text xml:space="preserve" font-family="Arvo,Arvo" font-size="50.0" fill="#000000" transform="matrix(1.00, 0.00, -0.00, -1.00, 1233.8, 166.1)">a</text><text xml:space="preserve" font-family="Arvo,Arvo" font-size="50.0" fill="#000000" transform="matrix(1.00, 0.00, -0.00, -1.00, 1261.2, 166.1)">t</text><text xml:space="preserve" font-family="Arvo,Arvo" font-size="50.0" fill="#000000" transform="matrix(1.00, 0.00, -0.00, -1.00, 1279.7, 166.1)">h</text><text xml:space="preserve" font-family="Arvo,Arvo" font-size="50.0" fill="#000000" transform="matrix(1.00, 0.00, -0.00, -1.00, 1312.8, 166.1)">.</text><image xlink:href="../../45D36621-484C-4026-80EC-FDBD73C2A2AB/assets/923CE3E752E9A611681D8CB028AA19A7.png" width="270.00" height="312.00" transform="matrix(0.47, 0.00, -0.00, -0.47, 412.0, 584.0)"></image><image xlink:href="../../45D36621-484C-4026-80EC-FDBD73C2A2AB/assets/923CE3E752E9A611681D8CB028AA19A7.png" width="270.00" height="312.00" transform="matrix(0.47, 0.00, -0.00, -0.47, 638.0, 725.0)"></image><image xlink:href="../../45D36621-484C-4026-80EC-FDBD73C2A2AB/assets/923CE3E752E9A611681D8CB028AA19A7.png" width="270.00" height="312.00" transform="matrix(0.47, 0.00, -0.00, -0.47, 863.0, 613.0)"></image><image xlink:href="../../45D36621-484C-4026-80EC-FDBD73C2A2AB/assets/923CE3E752E9A611681D8CB028AA19A7.png" width="270.00" height="312.00" transform="matrix(0.47, 0.00, -0.00, -0.47, 1139.0, 782.0)"></image><image xlink:href="../../45D36621-484C-4026-80EC-FDBD73C2A2AB/assets/923CE3E752E9A611681D8CB028AA19A7.png" width="270.00" height="312.00" transform="matrix(0.47, 0.00, -0.00, -0.47, 1381.0, 678.0)"></image></g></svg>