<?xml version="1.0" encoding="UTF-8"?><svg xmlns="http://www.w3.org/2000/svg" xmlns:xlink="http://www.w3.org/1999/xlink" clip-rule="evenodd" stroke-miterlimit="10" viewBox="0 0 1920 1080"><desc>SVG generated by Keynote</desc><defs><pattern id="8DAB2B22-136E-4093-A5B8-CA02832D80D0" patternUnits="userSpaceOnUse" width="600" height="600" viewBox="0 0 600 600"><image xlink:href="../../EC941867-1C26-46C1-A0FB-9B07DDC788FD/assets/B14F8FF639875B9C758B057453843567.png" width="600.00" height="600.00"></image></pattern><pattern id="799AE023-D32D-4EAB-B9D9-9DA5B52B0D0E" patternUnits="userSpaceOnUse" width="600" height="600" viewBox="0 0 600 600"><image xlink:href="../../EC941867-1C26-46C1-A0FB-9B07DDC788FD/assets/B14F8FF639875B9C758B057453843567.png" width="600.00" height="600.00"></image></pattern><pattern id="95861653-7FF2-4E52-8A6B-EEE1FC41336A" patternUnits="userSpaceOnUse" width="600" height="600" viewBox="0 0 600 600"><image xlink:href="../../EC941867-1C26-46C1-A0FB-9B07DDC788FD/assets/B14F8FF639875B9C758B057453843567.png" width="600.00" height="600.00"></image></pattern></defs><g transform="matrix(1.00, 0.00, -0.00, -1.00, 0.0, 1080.0)"><path d="M 0.0 0.0 L 1920.0 0.0 L 1920.0 1080.0 L 0.0 1080.0 Z M 0.0 0.0 " fill="#FEFFFF"></path><g><clipPath id="clip0x6100008aedc0"><path d="M 314.3 574.3 L 390.5 574.3 L 390.5 662.3 L 314.3 662.3 Z M 314.3 574.3 "></path></clipPath><g clip-path="url(#clip0x6100008aedc0)"><image xlink:href="../../45D36621-484C-4026-80EC-FDBD73C2A2AB/assets/923CE3E752E9A611681D8CB028AA19A7.png" width="270.00" height="312.00" transform="matrix(0.28, 0.00, -0.00, -0.28, 314.0, 662.0)"></image></g></g><g><clipPath id="clip0x618000ab21e0"><path d="M 404.0 640.0 L 707.0 640.0 L 707.0 499.0 L 404.0 499.0 Z M 404.2 640.1 "></path></clipPath><g clip-path="url(#clip0x618000ab21e0)"><g><clipPath id="clip0x618000ab1f40"><path d="M 403.2 498.5 L 707.6 498.5 L 707.6 641.1 L 403.2 641.1 Z M 403.2 498.5 "></path></clipPath><g clip-path="url(#clip0x618000ab1f40)"><path d="M 404.0 499.0 L 707.0 499.0 L 707.0 640.0 L 404.0 640.0 Z M 404.0 499.0 " fill="url(#8DAB2B22-136E-4093-A5B8-CA02832D80D0)"></path></g></g></g></g><g><clipPath id="clip0x608000aa2ac0"><path d="M 314.3 409.8 L 390.5 409.8 L 390.5 497.8 L 314.3 497.8 Z M 314.3 409.8 "></path></clipPath><g clip-path="url(#clip0x608000aa2ac0)"><image xlink:href="../../45D36621-484C-4026-80EC-FDBD73C2A2AB/assets/923CE3E752E9A611681D8CB028AA19A7.png" width="270.00" height="312.00" transform="matrix(0.28, 0.00, -0.00, -0.28, 314.0, 498.0)"></image></g></g><g><clipPath id="clip0x600000eb7640"><path d="M 404.0 476.0 L 707.0 476.0 L 707.0 335.0 L 404.0 335.0 Z M 404.2 475.6 "></path></clipPath><g clip-path="url(#clip0x600000eb7640)"><g><clipPath id="clip0x600000eb75e0"><path d="M 403.2 334.0 L 707.6 334.0 L 707.6 476.6 L 403.2 476.6 Z M 403.2 334.0 "></path></clipPath><g clip-path="url(#clip0x600000eb75e0)"><path d="M 404.0 335.0 L 707.0 335.0 L 707.0 476.0 L 404.0 476.0 Z M 404.0 335.0 " fill="url(#799AE023-D32D-4EAB-B9D9-9DA5B52B0D0E)"></path></g></g></g></g><g><clipPath id="clip0x6100008b4520"><path d="M 314.3 245.3 L 390.5 245.3 L 390.5 333.3 L 314.3 333.3 Z M 314.3 245.3 "></path></clipPath><g clip-path="url(#clip0x6100008b4520)"><image xlink:href="../../45D36621-484C-4026-80EC-FDBD73C2A2AB/assets/923CE3E752E9A611681D8CB028AA19A7.png" width="270.00" height="312.00" transform="matrix(0.28, 0.00, -0.00, -0.28, 314.0, 333.0)"></image></g></g><g><clipPath id="clip0x608000aa2dc0"><path d="M 404.0 311.0 L 707.0 311.0 L 707.0 170.0 L 404.0 170.0 Z M 404.2 311.1 "></path></clipPath><g clip-path="url(#clip0x608000aa2dc0)"><g><clipPath id="clip0x608000aa3000"><path d="M 403.2 169.4 L 707.6 169.4 L 707.6 312.1 L 403.2 312.1 Z M 403.2 169.4 "></path></clipPath><g clip-path="url(#clip0x608000aa3000)"><path d="M 404.0 170.0 L 707.0 170.0 L 707.0 311.0 L 404.0 311.0 Z M 404.0 170.0 " fill="url(#95861653-7FF2-4E52-8A6B-EEE1FC41336A)"></path></g></g></g></g><g><clipPath id="clip0x608000aa32a0"><path d="M 423.5 573.1 L 530.3 573.1 L 530.3 631.1 L 423.5 631.1 Z M 423.5 573.1 "></path></clipPath><g clip-path="url(#clip0x608000aa32a0)"><text xml:space="preserve" font-family="Helvetica-Light,Helvetica" font-size="34.0" fill="#51A7F9" transform="matrix(1.00, 0.00, -0.00, -1.00, 432.5, 589.4)">D</text><text xml:space="preserve" font-family="Helvetica-Light,Helvetica" font-size="34.0" fill="#51A7F9" transform="matrix(1.00, 0.00, -0.00, -1.00, 457.0, 589.4)">a</text><text xml:space="preserve" font-family="Helvetica-Light,Helvetica" font-size="34.0" fill="#51A7F9" transform="matrix(1.00, 0.00, -0.00, -1.00, 475.9, 589.4)">y</text><text xml:space="preserve" font-family="Helvetica-Light,Helvetica" font-size="34.0" fill="#51A7F9" transform="matrix(1.00, 0.00, -0.00, -1.00, 492.9, 589.4)"> </text><text xml:space="preserve" font-family="Helvetica-Light,Helvetica" font-size="34.0" fill="#51A7F9" transform="matrix(1.00, 0.00, -0.00, -1.00, 502.4, 589.4)">1</text></g></g><g><clipPath id="clip0x608000aa3720"><path d="M 423.3 409.3 L 475.3 409.3 L 475.3 467.3 L 423.3 467.3 Z M 423.3 409.3 "></path></clipPath><g clip-path="url(#clip0x608000aa3720)"><text xml:space="preserve" font-family="Helvetica-Light,Helvetica" font-size="34.0" fill="#51A7F9" transform="matrix(1.00, 0.00, -0.00, -1.00, 432.3, 425.6)">…</text></g></g><g><clipPath id="clip0x608000aa3960"><path d="M 423.3 245.6 L 475.3 245.6 L 475.3 303.6 L 423.3 303.6 Z M 423.3 245.6 "></path></clipPath><g clip-path="url(#clip0x608000aa3960)"><text xml:space="preserve" font-family="Helvetica-Light,Helvetica" font-size="34.0" fill="#51A7F9" transform="matrix(1.00, 0.00, -0.00, -1.00, 432.3, 261.9)">…</text></g></g><g><clipPath id="clip0x608000aa3ba0"><path d="M 427.8 542.4 L 570.5 542.4 L 570.5 573.1 L 427.8 573.1 Z M 427.8 542.4 "></path></clipPath><g clip-path="url(#clip0x608000aa3ba0)"><path d="M 429.0 572.0 L 569.0 572.0 L 569.0 543.0 L 429.0 543.0 Z M 428.8 572.1 " fill="#F3FAFF"></path></g></g><g><clipPath id="clip0x608000aa3de0"><path d="M 585.3 542.4 L 645.4 542.4 L 645.4 573.1 L 585.3 573.1 Z M 585.3 542.4 "></path></clipPath><g clip-path="url(#clip0x608000aa3de0)"><path d="M 586.0 572.0 L 644.0 572.0 L 644.0 543.0 L 586.0 543.0 Z M 586.3 572.1 " fill="#F3FAFF"></path></g></g><g><clipPath id="clip0x608000aa4020"><path d="M 433.6 511.0 L 520.2 511.0 L 520.2 530.2 L 433.6 530.2 Z M 433.6 511.0 "></path></clipPath><g clip-path="url(#clip0x608000aa4020)"><path d="M 435.0 529.0 L 519.0 529.0 L 519.0 512.0 L 435.0 512.0 Z M 434.6 529.2 " fill="#F3FAFF"></path></g></g><g><clipPath id="clip0x608000aa4260"><path d="M 430.6 383.5 L 573.3 383.5 L 573.3 414.2 L 430.6 414.2 Z M 430.6 383.5 "></path></clipPath><g clip-path="url(#clip0x608000aa4260)"><path d="M 432.0 413.0 L 572.0 413.0 L 572.0 384.0 L 432.0 384.0 Z M 431.6 413.2 " fill="#F3FAFF"></path></g></g><g><clipPath id="clip0x608000aa44a0"><path d="M 588.1 383.5 L 648.3 383.5 L 648.3 414.2 L 588.1 414.2 Z M 588.1 383.5 "></path></clipPath><g clip-path="url(#clip0x608000aa44a0)"><path d="M 589.0 413.0 L 647.0 413.0 L 647.0 384.0 L 589.0 384.0 Z M 589.1 413.2 " fill="#F3FAFF"></path></g></g><g><clipPath id="clip0x608000aa46e0"><path d="M 436.4 352.1 L 523.0 352.1 L 523.0 371.3 L 436.4 371.3 Z M 436.4 352.1 "></path></clipPath><g clip-path="url(#clip0x608000aa46e0)"><path d="M 437.0 370.0 L 522.0 370.0 L 522.0 353.0 L 437.0 353.0 Z M 437.4 370.3 " fill="#F3FAFF"></path></g></g><g><clipPath id="clip0x608000aa4920"><path d="M 433.5 224.6 L 576.1 224.6 L 576.1 255.3 L 433.5 255.3 Z M 433.5 224.6 "></path></clipPath><g clip-path="url(#clip0x608000aa4920)"><path d="M 434.0 254.0 L 575.0 254.0 L 575.0 226.0 L 434.0 226.0 Z M 434.5 254.3 " fill="#F3FAFF"></path></g></g><g><clipPath id="clip0x608000aa4b60"><path d="M 591.0 224.6 L 651.1 224.6 L 651.1 255.3 L 591.0 255.3 Z M 591.0 224.6 "></path></clipPath><g clip-path="url(#clip0x608000aa4b60)"><path d="M 592.0 254.0 L 650.0 254.0 L 650.0 226.0 L 592.0 226.0 Z M 592.0 254.3 " fill="#F3FAFF"></path></g></g><g><clipPath id="clip0x608000aa4da0"><path d="M 439.2 193.1 L 525.8 193.1 L 525.8 212.4 L 439.2 212.4 Z M 439.2 193.1 "></path></clipPath><g clip-path="url(#clip0x608000aa4da0)"><path d="M 440.0 211.0 L 525.0 211.0 L 525.0 194.0 L 440.0 194.0 Z M 440.2 211.4 " fill="#F3FAFF"></path></g></g><text xml:space="preserve" font-family="Arvo,Arvo" font-size="50.0" fill="#000000" transform="matrix(1.00, 0.00, -0.00, -1.00, 693.2, 904.0)">N</text><text xml:space="preserve" font-family="Arvo,Arvo" font-size="50.0" fill="#000000" transform="matrix(1.00, 0.00, -0.00, -1.00, 732.9, 904.0)">e</text><text xml:space="preserve" font-family="Arvo,Arvo" font-size="50.0" fill="#000000" transform="matrix(1.00, 0.00, -0.00, -1.00, 761.5, 904.0)">e</text><text xml:space="preserve" font-family="Arvo,Arvo" font-size="50.0" fill="#000000" transform="matrix(1.00, 0.00, -0.00, -1.00, 790.2, 904.0)">d</text><text xml:space="preserve" font-family="Arvo,Arvo" font-size="50.0" fill="#000000" transform="matrix(1.00, 0.00, -0.00, -1.00, 821.2, 904.0)"> </text><text xml:space="preserve" font-family="Arvo,Arvo" font-size="50.0" fill="#000000" transform="matrix(1.00, 0.00, -0.00, -1.00, 832.1, 904.0)">s</text><text xml:space="preserve" font-family="Arvo,Arvo" font-size="50.0" fill="#000000" transform="matrix(1.00, 0.00, -0.00, -1.00, 856.3, 904.0)">o</text><text xml:space="preserve" font-family="Arvo,Arvo" font-size="50.0" fill="#000000" transform="matrix(1.00, 0.00, -0.00, -1.00, 886.2, 904.0)">m</text><text xml:space="preserve" font-family="Arvo,Arvo" font-size="50.0" fill="#000000" transform="matrix(1.00, 0.00, -0.00, -1.00, 936.3, 904.0)">e</text><text xml:space="preserve" font-family="Arvo,Arvo" font-size="50.0" fill="#000000" transform="matrix(1.00, 0.00, -0.00, -1.00, 965.0, 904.0)"> </text><text xml:space="preserve" font-family="Arvo,Arvo" font-size="50.0" fill="#000000" transform="matrix(1.00, 0.00, -0.00, -1.00, 975.9, 904.0)">g</text><text xml:space="preserve" font-family="Arvo,Arvo" font-size="50.0" fill="#000000" transform="matrix(1.00, 0.00, -0.00, -1.00, 1005.2, 904.0)">u</text><text xml:space="preserve" font-family="Arvo,Arvo" font-size="50.0" fill="#000000" transform="matrix(1.00, 0.00, -0.00, -1.00, 1038.1, 904.0)">i</text><text xml:space="preserve" font-family="Arvo,Arvo" font-size="50.0" fill="#000000" transform="matrix(1.00, 0.00, -0.00, -1.00, 1054.2, 904.0)">d</text><text xml:space="preserve" font-family="Arvo,Arvo" font-size="50.0" fill="#000000" transform="matrix(1.00, 0.00, -0.00, -1.00, 1085.1, 904.0)">a</text><text xml:space="preserve" font-family="Arvo,Arvo" font-size="50.0" fill="#000000" transform="matrix(1.00, 0.00, -0.00, -1.00, 1112.5, 904.0)">n</text><text xml:space="preserve" font-family="Arvo,Arvo" font-size="50.0" fill="#000000" transform="matrix(1.00, 0.00, -0.00, -1.00, 1145.8, 904.0)">c</text><text xml:space="preserve" font-family="Arvo,Arvo" font-size="50.0" fill="#000000" transform="matrix(1.00, 0.00, -0.00, -1.00, 1173.1, 904.0)">e</text><text xml:space="preserve" font-family="Arvo,Arvo" font-size="50.0" fill="#000000" transform="matrix(1.00, 0.00, -0.00, -1.00, 1201.8, 904.0)">?</text><g><clipPath id="clip0x608000aa5760"><path d="M 520.7 783.5 L 1399.3 783.5 L 1399.3 878.6 L 520.7 878.6 Z M 520.7 783.5 "></path></clipPath><g clip-path="url(#clip0x608000aa5760)"><path d="M 523.0 876.4 L 1397.0 876.4 L 1397.0 785.4 L 523.0 785.4 Z M 522.7 876.6 " fill="#FEFFFE"></path><path d="M 0.3 0.2 L 874.3 0.2 L 874.3 91.2 L 0.3 91.2 Z M 0.0 0.0 " fill="none" stroke="#51A7F9" stroke-width="2.00" transform="matrix(1.00, 0.00, 0.00, -1.00, 522.7, 876.6)"></path></g></g><g><clipPath id="clip0x608000aa5a60"><path d="M 545.0 857.0 L 594.0 857.0 L 594.0 805.0 L 545.0 805.0 Z M 544.9 856.8 "></path></clipPath><g clip-path="url(#clip0x608000aa5a60)"><g><clipPath id="clip0x608000aa5be0"><path d="M 544.9 805.3 L 593.6 805.3 L 593.6 856.8 L 544.9 856.8 Z M 544.9 805.3 "></path></clipPath><g clip-path="url(#clip0x608000aa5be0)"><image xlink:href="../../EC941867-1C26-46C1-A0FB-9B07DDC788FD/assets/FA8A3C46327306EB954BC67E3A4EDED0.png" width="121.00" height="128.00" transform="matrix(0.40, 0.00, -0.00, -0.40, 545.0, 856.4)"></image></g></g></g></g><text xml:space="preserve" font-family="Helvetica-Light,Helvetica" font-size="36.0" fill="#000000" transform="matrix(1.00, 0.00, -0.00, -1.00, 649.6, 817.7)">S</text><text xml:space="preserve" font-family="Helvetica-Light,Helvetica" font-size="36.0" fill="#000000" transform="matrix(1.00, 0.00, -0.00, -1.00, 671.6, 817.7)">e</text><text xml:space="preserve" font-family="Helvetica-Light,Helvetica" font-size="36.0" fill="#000000" transform="matrix(1.00, 0.00, -0.00, -1.00, 691.6, 817.7)">a</text><text xml:space="preserve" font-family="Helvetica-Light,Helvetica" font-size="36.0" fill="#000000" transform="matrix(1.00, 0.00, -0.00, -1.00, 711.6, 817.7)">r</text><text xml:space="preserve" font-family="Helvetica-Light,Helvetica" font-size="36.0" fill="#000000" transform="matrix(1.00, 0.00, -0.00, -1.00, 723.0, 817.7)">c</text><text xml:space="preserve" font-family="Helvetica-Light,Helvetica" font-size="36.0" fill="#000000" transform="matrix(1.00, 0.00, -0.00, -1.00, 743.0, 817.7)">h</text><text xml:space="preserve" font-family="Helvetica-Light,Helvetica" font-size="36.0" fill="#000000" transform="matrix(1.00, 0.00, -0.00, -1.00, 763.0, 817.7)"> </text><text xml:space="preserve" font-family="Helvetica-Light,Helvetica" font-size="36.0" fill="#000000" transform="matrix(1.00, 0.00, -0.00, -1.00, 773.0, 817.7)">f</text><text xml:space="preserve" font-family="Helvetica-Light,Helvetica" font-size="36.0" fill="#000000" transform="matrix(1.00, 0.00, -0.00, -1.00, 783.0, 817.7)">o</text><text xml:space="preserve" font-family="Helvetica-Light,Helvetica" font-size="36.0" fill="#000000" transform="matrix(1.00, 0.00, -0.00, -1.00, 803.0, 817.7)">r</text><text xml:space="preserve" font-family="Helvetica-Light,Helvetica" font-size="36.0" fill="#000000" transform="matrix(1.00, 0.00, -0.00, -1.00, 815.0, 817.7)"> </text><text xml:space="preserve" font-family="Helvetica-Light,Helvetica" font-size="36.0" fill="#000000" transform="matrix(1.00, 0.00, -0.00, -1.00, 825.0, 817.7)">D</text><text xml:space="preserve" font-family="Helvetica-Light,Helvetica" font-size="36.0" fill="#000000" transform="matrix(1.00, 0.00, -0.00, -1.00, 851.0, 817.7)">r</text><text xml:space="preserve" font-family="Helvetica-Light,Helvetica" font-size="36.0" fill="#000000" transform="matrix(1.00, 0.00, -0.00, -1.00, 863.0, 817.7)">i</text><text xml:space="preserve" font-family="Helvetica-Light,Helvetica" font-size="36.0" fill="#000000" transform="matrix(1.00, 0.00, -0.00, -1.00, 871.0, 817.7)">l</text><text xml:space="preserve" font-family="Helvetica-Light,Helvetica" font-size="36.0" fill="#000000" transform="matrix(1.00, 0.00, -0.00, -1.00, 879.0, 817.7)">l</text><text xml:space="preserve" font-family="Helvetica-Light,Helvetica" font-size="36.0" fill="#000000" transform="matrix(1.00, 0.00, -0.00, -1.00, 887.0, 817.7)">s</text><text xml:space="preserve" font-family="Helvetica-Light,Helvetica" font-size="36.0" fill="#000000" transform="matrix(1.00, 0.00, -0.00, -1.00, 905.0, 817.7)"> </text><text xml:space="preserve" font-family="Helvetica-Light,Helvetica" font-size="36.0" fill="#000000" transform="matrix(1.00, 0.00, -0.00, -1.00, 915.0, 817.7)">f</text><text xml:space="preserve" font-family="Helvetica-Light,Helvetica" font-size="36.0" fill="#000000" transform="matrix(1.00, 0.00, -0.00, -1.00, 925.0, 817.7)">r</text><text xml:space="preserve" font-family="Helvetica-Light,Helvetica" font-size="36.0" fill="#000000" transform="matrix(1.00, 0.00, -0.00, -1.00, 936.3, 817.7)">o</text><text xml:space="preserve" font-family="Helvetica-Light,Helvetica" font-size="36.0" fill="#000000" transform="matrix(1.00, 0.00, -0.00, -1.00, 956.3, 817.7)">m</text><text xml:space="preserve" font-family="Helvetica-Light,Helvetica" font-size="36.0" fill="#000000" transform="matrix(1.00, 0.00, -0.00, -1.00, 986.3, 817.7)"> </text><text xml:space="preserve" font-family="Helvetica-Light,Helvetica" font-size="36.0" fill="#000000" transform="matrix(1.00, 0.00, -0.00, -1.00, 996.3, 817.7)">a</text><text xml:space="preserve" font-family="Helvetica-Light,Helvetica" font-size="36.0" fill="#000000" transform="matrix(1.00, 0.00, -0.00, -1.00, 1016.4, 817.7)">l</text><text xml:space="preserve" font-family="Helvetica-Light,Helvetica" font-size="36.0" fill="#000000" transform="matrix(1.00, 0.00, -0.00, -1.00, 1024.3, 817.7)">l</text><text xml:space="preserve" font-family="Helvetica-Light,Helvetica" font-size="36.0" fill="#000000" transform="matrix(1.00, 0.00, -0.00, -1.00, 1032.3, 817.7)"> </text><text xml:space="preserve" font-family="Helvetica-Light,Helvetica" font-size="36.0" fill="#000000" transform="matrix(1.00, 0.00, -0.00, -1.00, 1042.3, 817.7)">o</text><text xml:space="preserve" font-family="Helvetica-Light,Helvetica" font-size="36.0" fill="#000000" transform="matrix(1.00, 0.00, -0.00, -1.00, 1062.4, 817.7)">v</text><text xml:space="preserve" font-family="Helvetica-Light,Helvetica" font-size="36.0" fill="#000000" transform="matrix(1.00, 0.00, -0.00, -1.00, 1080.4, 817.7)">e</text><text xml:space="preserve" font-family="Helvetica-Light,Helvetica" font-size="36.0" fill="#000000" transform="matrix(1.00, 0.00, -0.00, -1.00, 1100.4, 817.7)">r</text><text xml:space="preserve" font-family="Helvetica-Light,Helvetica" font-size="36.0" fill="#000000" transform="matrix(1.00, 0.00, -0.00, -1.00, 1112.4, 817.7)"> </text><text xml:space="preserve" font-family="Helvetica-Light,Helvetica" font-size="36.0" fill="#000000" transform="matrix(1.00, 0.00, -0.00, -1.00, 1122.4, 817.7)">t</text><text xml:space="preserve" font-family="Helvetica-Light,Helvetica" font-size="36.0" fill="#000000" transform="matrix(1.00, 0.00, -0.00, -1.00, 1132.4, 817.7)">h</text><text xml:space="preserve" font-family="Helvetica-Light,Helvetica" font-size="36.0" fill="#000000" transform="matrix(1.00, 0.00, -0.00, -1.00, 1152.4, 817.7)">e</text><text xml:space="preserve" font-family="Helvetica-Light,Helvetica" font-size="36.0" fill="#000000" transform="matrix(1.00, 0.00, -0.00, -1.00, 1172.4, 817.7)"> </text><text xml:space="preserve" font-family="Helvetica-Light,Helvetica" font-size="36.0" fill="#000000" transform="matrix(1.00, 0.00, -0.00, -1.00, 1182.4, 817.7)">w</text><text xml:space="preserve" font-family="Helvetica-Light,Helvetica" font-size="36.0" fill="#000000" transform="matrix(1.00, 0.00, -0.00, -1.00, 1208.4, 817.7)">o</text><text xml:space="preserve" font-family="Helvetica-Light,Helvetica" font-size="36.0" fill="#000000" transform="matrix(1.00, 0.00, -0.00, -1.00, 1228.4, 817.7)">r</text><text xml:space="preserve" font-family="Helvetica-Light,Helvetica" font-size="36.0" fill="#000000" transform="matrix(1.00, 0.00, -0.00, -1.00, 1240.4, 817.7)">l</text><text xml:space="preserve" font-family="Helvetica-Light,Helvetica" font-size="36.0" fill="#000000" transform="matrix(1.00, 0.00, -0.00, -1.00, 1248.4, 817.7)">d</text><text xml:space="preserve" font-family="Arvo,Arvo" font-size="50.0" fill="#000000" transform="matrix(1.00, 0.00, -0.00, -1.00, 1241.5, 600.2)">R</text><text xml:space="preserve" font-family="Arvo,Arvo" font-size="50.0" fill="#000000" transform="matrix(1.00, 0.00, -0.00, -1.00, 1277.1, 600.2)">e</text><text xml:space="preserve" font-family="Arvo,Arvo" font-size="50.0" fill="#000000" transform="matrix(1.00, 0.00, -0.00, -1.00, 1305.8, 600.2)">f</text><text xml:space="preserve" font-family="Arvo,Arvo" font-size="50.0" fill="#000000" transform="matrix(1.00, 0.00, -0.00, -1.00, 1323.9, 600.2)">e</text><text xml:space="preserve" font-family="Arvo,Arvo" font-size="50.0" fill="#000000" transform="matrix(1.00, 0.00, -0.00, -1.00, 1352.6, 600.2)">r</text><text xml:space="preserve" font-family="Arvo,Arvo" font-size="50.0" fill="#000000" transform="matrix(1.00, 0.00, -0.00, -1.00, 1376.1, 600.2)"> </text><text xml:space="preserve" font-family="Arvo,Arvo" font-size="50.0" fill="#000000" transform="matrix(1.00, 0.00, -0.00, -1.00, 1387.0, 600.2)">t</text><text xml:space="preserve" font-family="Arvo,Arvo" font-size="50.0" fill="#000000" transform="matrix(1.00, 0.00, -0.00, -1.00, 1405.6, 600.2)">o</text><text xml:space="preserve" font-family="Arvo,Arvo" font-size="50.0" fill="#000000" transform="matrix(1.00, 0.00, -0.00, -1.00, 1435.5, 600.2)"> </text><text xml:space="preserve" font-family="Arvo,Arvo" font-size="50.0" fill="#000000" transform="matrix(1.00, 0.00, -0.00, -1.00, 1446.4, 600.2)">a</text><text xml:space="preserve" font-family="Arvo,Arvo" font-size="50.0" fill="#000000" transform="matrix(1.00, 0.00, -0.00, -1.00, 1473.8, 600.2)"> </text><text xml:space="preserve" font-family="Arvo,Arvo" font-size="50.0" fill="#000000" transform="matrix(1.00, 0.00, -0.00, -1.00, 1484.7, 600.2)">D</text><text xml:space="preserve" font-family="Arvo,Arvo" font-size="50.0" fill="#000000" transform="matrix(1.00, 0.00, -0.00, -1.00, 1521.5, 600.2)">r</text><text xml:space="preserve" font-family="Arvo,Arvo" font-size="50.0" fill="#000000" transform="matrix(1.00, 0.00, -0.00, -1.00, 1544.9, 600.2)">i</text><text xml:space="preserve" font-family="Arvo,Arvo" font-size="50.0" fill="#000000" transform="matrix(1.00, 0.00, -0.00, -1.00, 1561.0, 600.2)">l</text><text xml:space="preserve" font-family="Arvo,Arvo" font-size="50.0" fill="#000000" transform="matrix(1.00, 0.00, -0.00, -1.00, 1577.2, 600.2)">l</text><text xml:space="preserve" font-family="Arvo,Arvo" font-size="50.0" fill="#000000" transform="matrix(1.00, 0.00, -0.00, -1.00, 1593.5, 600.2)">,</text><text xml:space="preserve" font-family="Arvo,Arvo" font-size="50.0" fill="#000000" transform="matrix(1.00, 0.00, -0.00, -1.00, 1601.6, 600.2)"> </text><text xml:space="preserve" font-family="Arvo,Arvo" font-size="50.0" fill="#000000" transform="matrix(1.00, 0.00, -0.00, -1.00, 1115.4, 539.2)">A</text><text xml:space="preserve" font-family="Arvo,Arvo" font-size="50.0" fill="#000000" transform="matrix(1.00, 0.00, -0.00, -1.00, 1153.0, 539.2)">n</text><text xml:space="preserve" font-family="Arvo,Arvo" font-size="50.0" fill="#000000" transform="matrix(1.00, 0.00, -0.00, -1.00, 1186.4, 539.2)">d</text><text xml:space="preserve" font-family="Arvo,Arvo" font-size="50.0" fill="#000000" transform="matrix(1.00, 0.00, -0.00, -1.00, 1217.3, 539.2)"> </text><text xml:space="preserve" font-family="Arvo,Arvo" font-size="50.0" fill="#51A7F9" transform="matrix(1.00, 0.00, -0.00, -1.00, 1228.3, 539.2)">f</text><text xml:space="preserve" font-family="Arvo,Arvo" font-size="50.0" fill="#51A7F9" transform="matrix(1.00, 0.00, -0.00, -1.00, 1246.4, 539.2)">o</text><text xml:space="preserve" font-family="Arvo,Arvo" font-size="50.0" fill="#51A7F9" transform="matrix(1.00, 0.00, -0.00, -1.00, 1276.3, 539.2)">l</text><text xml:space="preserve" font-family="Arvo,Arvo" font-size="50.0" fill="#51A7F9" transform="matrix(1.00, 0.00, -0.00, -1.00, 1292.6, 539.2)">l</text><text xml:space="preserve" font-family="Arvo,Arvo" font-size="50.0" fill="#51A7F9" transform="matrix(1.00, 0.00, -0.00, -1.00, 1308.8, 539.2)">o</text><text xml:space="preserve" font-family="Arvo,Arvo" font-size="50.0" fill="#51A7F9" transform="matrix(1.00, 0.00, -0.00, -1.00, 1338.7, 539.2)">w</text><text xml:space="preserve" font-family="Arvo,Arvo" font-size="50.0" fill="#51A7F9" transform="matrix(1.00, 0.00, -0.00, -1.00, 1378.8, 539.2)"> </text><text xml:space="preserve" font-family="Arvo,Arvo" font-size="50.0" fill="#51A7F9" transform="matrix(1.00, 0.00, -0.00, -1.00, 1389.7, 539.2)">t</text><text xml:space="preserve" font-family="Arvo,Arvo" font-size="50.0" fill="#51A7F9" transform="matrix(1.00, 0.00, -0.00, -1.00, 1408.3, 539.2)">h</text><text xml:space="preserve" font-family="Arvo,Arvo" font-size="50.0" fill="#51A7F9" transform="matrix(1.00, 0.00, -0.00, -1.00, 1441.3, 539.2)">e</text><text xml:space="preserve" font-family="Arvo,Arvo" font-size="50.0" fill="#51A7F9" transform="matrix(1.00, 0.00, -0.00, -1.00, 1470.0, 539.2)"> </text><text xml:space="preserve" font-family="Arvo,Arvo" font-size="50.0" fill="#51A7F9" transform="matrix(1.00, 0.00, -0.00, -1.00, 1480.9, 539.2)">p</text><text xml:space="preserve" font-family="Arvo,Arvo" font-size="50.0" fill="#51A7F9" transform="matrix(1.00, 0.00, -0.00, -1.00, 1511.4, 539.2)">a</text><text xml:space="preserve" font-family="Arvo,Arvo" font-size="50.0" fill="#51A7F9" transform="matrix(1.00, 0.00, -0.00, -1.00, 1538.7, 539.2)">t</text><text xml:space="preserve" font-family="Arvo,Arvo" font-size="50.0" fill="#51A7F9" transform="matrix(1.00, 0.00, -0.00, -1.00, 1557.3, 539.2)">h</text><text xml:space="preserve" font-family="Arvo,Arvo" font-size="50.0" fill="#000000" transform="matrix(1.00, 0.00, -0.00, -1.00, 1590.5, 539.2)">.</text><text xml:space="preserve" font-family="Arvo,Arvo" font-size="50.0" fill="#000000" transform="matrix(1.00, 0.00, -0.00, -1.00, 1601.7, 539.2)"> </text><text xml:space="preserve" font-family="Arvo,Arvo" font-size="50.0" fill="#000000" transform="matrix(1.00, 0.00, -0.00, -1.00, 1484.1, 417.2)">E</text><text xml:space="preserve" font-family="Arvo,Arvo" font-size="50.0" fill="#000000" transform="matrix(1.00, 0.00, -0.00, -1.00, 1515.5, 417.2)">a</text><text xml:space="preserve" font-family="Arvo,Arvo" font-size="50.0" fill="#000000" transform="matrix(1.00, 0.00, -0.00, -1.00, 1542.8, 417.2)">s</text><text xml:space="preserve" font-family="Arvo,Arvo" font-size="50.0" fill="#000000" transform="matrix(1.00, 0.00, -0.00, -1.00, 1567.1, 417.2)">y</text><text xml:space="preserve" font-family="Arvo,Arvo" font-size="50.0" fill="#000000" transform="matrix(1.00, 0.00, -0.00, -1.00, 1590.5, 417.2)">.</text></g></svg>