<svg xmlns="http://www.w3.org/2000/svg" viewBox="0 0 1429.47 560.49"><title>landing-logotool</title><g id="Layer_2" data-name="Layer 2"><g id="Layer_1-2" data-name="Layer 1"><polygon points="993.6 233.84 858.93 311.59 724.26 233.84 724.26 78.33 858.93 0.58 993.6 78.33 993.6 233.84" style="fill:#def2ff"/><polygon points="1138.57 482.15 1003.9 559.91 869.22 482.15 869.22 326.65 1003.9 248.89 1138.57 326.65 1138.57 482.15" style="fill:#def2ff"/><polygon points="1283 233.84 1148.32 311.59 1013.65 233.84 1013.65 78.33 1148.32 0.58 1283 78.33 1283 233.84" style="fill:#fff;stroke:#6cc0ff;stroke-miterlimit:10"/><polygon points="1428.97 482.15 1294.29 559.91 1159.62 482.15 1159.62 326.65 1294.29 248.89 1428.97 326.65 1428.97 482.15" style="fill:#fff;stroke:#6cc0ff;stroke-miterlimit:10"/><polygon points="415.36 233.84 280.68 311.59 146.01 233.84 146.01 78.33 280.68 0.58 415.36 78.33 415.36 233.84" style="fill:#fff;stroke:#6cc0ff;stroke-miterlimit:10"/><polygon points="269.85 482.15 135.17 559.91 0.5 482.15 0.5 326.65 135.17 248.89 269.85 326.65 269.85 482.15" style="fill:#fff;stroke:#6cc0ff;stroke-miterlimit:10"/><polygon points="704.21 233.84 569.54 311.59 434.86 233.84 434.86 78.33 569.54 0.58 704.21 78.33 704.21 233.84" style="fill:#def2ff"/><polygon points="561.79 482.15 427.11 559.91 292.44 482.15 292.44 326.65 427.11 248.89 561.79 326.65 561.79 482.15" style="fill:#def2ff"/><path d="M730.37,483.06,712,501.7c-4.86-4.56-9.41-9.4-14.55-13.51-6.39-5.11-4.41-11.81-4.67-18.64Z" style="fill:#6cc0ff"/><path d="M731.5,317.47v30.87c-5-1.93-10.56-3.76-15.69-5.6-6.42-2.3-12.8-4.75-19.26-6.87-2.88-.95-4-2.53-3.82-5.54.22-4.19.05-7.86.05-12.86Z" style="fill:#6cc0ff"/><path d="M731.81,384.12c0,1-.11,2.07-.18,3.31-12.34-4.49-24.32-8.78-36.24-13.26a4.31,4.31,0,0,1-2.42-3c-.23-6-.11-12-.11-18.34,1.22.42,2.22.74,3.2,1.09,10.64,3.82,21.26,7.69,31.93,11.43,2.66.93,3.9,2.37,3.78,5.31C731.6,375.13,731.8,379.63,731.81,384.12Z" style="fill:#6cc0ff"/><path d="M731.82,465.43l-10.89-3.93c-8.43-3-16.84-6.16-25.3-9.13-2-.71-2.86-1.82-2.83-3.94.09-5.8,0-11.6,0-17.75L703,434.29c8.61,3.08,17.2,6.22,25.83,9.21a3.93,3.93,0,0,1,3,4.37C731.74,453.58,731.82,459.3,731.82,465.43Z" style="fill:#6cc0ff"/><path d="M731.82,426.37l-16-5.74c-6.66-2.38-13.32-4.82-20-7.11a3.94,3.94,0,0,1-3.08-4.35c.13-5.64,0-11.29,0-17.33,1.58.49,2.92.85,4.24,1.32,10.38,3.71,20.74,7.5,31.15,11.12,2.75,1,3.79,2.48,3.7,5.36C731.7,415.08,731.82,420.54,731.82,426.37Z" style="fill:#6cc0ff"/><path d="M713.5,248.89l-135,77.75V482.15l135,77.75,135-77.75V326.64Zm46,231.5c-2.7,2.5-5.39,5-8,7.58-1.33,1.3-2.58,2-4.53,1.14-2.24-.94-3.69.74-5.1,2.13q-13.48,13.38-27,26.78c-1,1-2.07,1.93-2.84,2.65-10.18-10.28-20.26-20.35-30.14-30.61-1.21-1.25-1.76-3.55-1.85-5.4-.24-5.47-.17-11-.06-16.44,0-2.33-.71-3.62-3-4.3a63,63,0,0,1-8.81-3.28,4.58,4.58,0,0,1-2.4-2.81c-.87-5.48-1.63-11-2.36-17,5.53,1.93,11.18,3.74,16.18,5.73V437c0-2.78.08-5.57.19-8.35a3,3,0,0,0-2.2-3.44c-3.12-1.12-6.17-2.35-9.3-3.45a3.73,3.73,0,0,1-2.76-3.5c-.55-5.34-1.22-10.66-1.9-16.43l16.3,5.71c0-6.46.12-12.47-.09-18.48,0-1-1.3-2.27-2.31-2.73-2.93-1.34-6-2.38-9.06-3.44a4,4,0,0,1-2.94-3.7c-.56-5.33-1.23-10.66-1.89-16.31l16.29,5.69c0-6.43.12-12.53-.11-18.62,0-1-1.44-2.22-2.5-2.69-2.94-1.33-6.07-2.2-9-3.49-1-.44-2.29-1.49-2.44-2.43-.9-5.66-1.67-11.36-2.42-17.42,5.55,1.94,11.17,3.76,16.17,5.72V304.47h65v3.11c0,14,0,28,0,42a4.45,4.45,0,0,0,3.46,4.77c5,1.67,10,3.52,15.43,5.48-4.61,4.23-8.74,8.3-13.22,12-1.16,1-3.36.62-5.41.93,0,6,0,12.19.1,18.36,0,.59,1.23,1.37,2,1.68,5.27,2,10.58,3.9,16.49,6.06-4.72,4.31-9.08,8.36-13.54,12.29-.48.42-1.53.25-2.31.25s-1.58-.15-2.83-.28c0,2.44,0,4.72,0,7,0,3.15.19,6.3,0,9.43-.17,2.66,1,3.9,3.37,4.7,4.91,1.69,9.77,3.53,15.18,5.5-3.4,3.23-6.56,6.18-9.68,9.18-2.36,2.27-4.62,4.7-8.87,2.9,0,3.06,0,5.61,0,8.16,0,3,.16,5.93,0,8.89-.12,2.3.9,3.46,2.93,4.18,5.06,1.82,10.1,3.71,15.89,5.85C762,478.23,760.67,479.27,759.45,480.39Z" style="fill:#6cc0ff"/></g></g></svg>