<svg xmlns="http://www.w3.org/2000/svg" viewBox="0 0 270 311.01"><title>logo</title><g id="Layer_2" data-name="Layer 2"><g id="Layer_1-2" data-name="Layer 1"><path d="M151.87,234.17l-18.4,18.64c-4.86-4.56-9.41-9.4-14.55-13.51-6.39-5.11-4.41-11.81-4.67-18.64Z" style="fill:#6cc0ff"/><path d="M153,68.58V99.45c-5-1.93-10.56-3.76-15.69-5.6-6.42-2.3-12.8-4.75-19.26-6.87-2.88-.95-4-2.53-3.82-5.54.22-4.19.05-7.86.05-12.86Z" style="fill:#6cc0ff"/><path d="M153.31,135.23c0,1-.11,2.07-.18,3.31-12.34-4.49-24.32-8.78-36.24-13.26a4.31,4.31,0,0,1-2.42-3c-.23-6-.11-12-.11-18.34,1.22.42,2.22.74,3.2,1.09,10.64,3.82,21.26,7.69,31.93,11.43,2.66.93,3.9,2.37,3.78,5.31C153.1,126.24,153.3,130.74,153.31,135.23Z" style="fill:#6cc0ff"/><path d="M153.32,216.54l-10.89-3.93c-8.43-3-16.84-6.16-25.3-9.13-2-.71-2.86-1.82-2.83-3.94.09-5.8,0-11.6,0-17.75l10.14,3.61c8.61,3.08,17.2,6.22,25.83,9.21a3.93,3.93,0,0,1,3,4.37C153.24,204.69,153.32,210.41,153.32,216.54Z" style="fill:#6cc0ff"/><path d="M153.32,177.48l-16-5.74c-6.66-2.38-13.32-4.82-20-7.11a3.94,3.94,0,0,1-3.08-4.35c.13-5.64,0-11.29,0-17.33,1.58.49,2.92.85,4.24,1.32,10.38,3.71,20.74,7.5,31.15,11.12,2.75,1,3.79,2.48,3.7,5.36C153.2,166.19,153.32,171.65,153.32,177.48Z" style="fill:#6cc0ff"/><path d="M135,0,0,77.75V233.26L135,311l135-77.75V77.75Zm46,231.5c-2.7,2.5-5.39,5-8,7.58-1.33,1.3-2.58,2-4.53,1.14-2.24-.94-3.69.74-5.1,2.13q-13.48,13.38-27,26.78c-1,1-2.07,1.93-2.84,2.65-10.18-10.28-20.26-20.35-30.14-30.61-1.21-1.25-1.76-3.55-1.85-5.4-.24-5.47-.17-11-.06-16.44,0-2.33-.71-3.62-3-4.3a63,63,0,0,1-8.81-3.28,4.58,4.58,0,0,1-2.4-2.81c-.87-5.48-1.63-11-2.36-17,5.53,1.93,11.18,3.74,16.18,5.73v-9.57c0-2.78.08-5.57.19-8.35a3,3,0,0,0-2.2-3.44c-3.12-1.12-6.17-2.35-9.3-3.45a3.73,3.73,0,0,1-2.76-3.5c-.55-5.34-1.22-10.66-1.9-16.43l16.3,5.71c0-6.46.12-12.47-.09-18.48,0-1-1.3-2.27-2.31-2.73-2.93-1.34-6-2.38-9.06-3.44a4,4,0,0,1-2.94-3.7C86.37,125,85.7,119.64,85,114l16.29,5.69c0-6.43.12-12.53-.11-18.62,0-1-1.44-2.22-2.5-2.69-2.94-1.33-6.07-2.2-9-3.49-1-.44-2.29-1.49-2.44-2.43-.9-5.66-1.67-11.36-2.42-17.42C90.38,77,96,78.79,101,80.75V55.58h65v3.11c0,14,0,28,0,42a4.45,4.45,0,0,0,3.46,4.77c5,1.67,10,3.52,15.43,5.48-4.61,4.23-8.74,8.3-13.22,12-1.16,1-3.36.62-5.41.93,0,6,0,12.19.1,18.36,0,.59,1.23,1.37,2,1.68,5.27,2,10.58,3.9,16.49,6.06-4.72,4.31-9.08,8.36-13.54,12.29-.48.42-1.53.25-2.31.25s-1.58-.15-2.83-.28c0,2.44,0,4.72,0,7,0,3.15.19,6.3,0,9.43-.17,2.66,1,3.9,3.37,4.7,4.91,1.69,9.77,3.53,15.18,5.5-3.4,3.23-6.56,6.18-9.68,9.18-2.36,2.27-4.62,4.7-8.87,2.9,0,3.06,0,5.61,0,8.16,0,3,.16,5.93,0,8.89-.12,2.3.9,3.46,2.93,4.18,5.06,1.82,10.1,3.71,15.89,5.85C183.46,229.34,182.17,230.38,181,231.5Z" style="fill:#6cc0ff"/></g></g></svg>