<?xml version="1.0" encoding="UTF-8"?><svg xmlns="http://www.w3.org/2000/svg" xmlns:xlink="http://www.w3.org/1999/xlink" clip-rule="evenodd" stroke-miterlimit="10" viewBox="0 0 551 47"><desc>SVG generated by Keynote</desc><defs></defs><g transform="matrix(1.00, 0.00, -0.00, -1.00, 0.0, 47.0)"><text xml:space="preserve" font-family="Helvetica-Light,Helvetica" font-size="58.0" fill="#000000" transform="matrix(1.00, 0.00, -0.00, -1.00, 0.8, 3.1)">T</text><text xml:space="preserve" font-family="Helvetica-Light,Helvetica" font-size="58.0" fill="#000000" transform="matrix(1.00, 0.00, -0.00, -1.00, 33.0, 3.1)">h</text><text xml:space="preserve" font-family="Helvetica-Light,Helvetica" font-size="58.0" fill="#000000" transform="matrix(1.00, 0.00, -0.00, -1.00, 65.3, 3.1)">o</text><text xml:space="preserve" font-family="Helvetica-Light,Helvetica" font-size="58.0" fill="#000000" transform="matrix(1.00, 0.00, -0.00, -1.00, 97.5, 3.1)">u</text><text xml:space="preserve" font-family="Helvetica-Light,Helvetica" font-size="58.0" fill="#000000" transform="matrix(1.00, 0.00, -0.00, -1.00, 129.8, 3.1)">s</text><text xml:space="preserve" font-family="Helvetica-Light,Helvetica" font-size="58.0" fill="#000000" transform="matrix(1.00, 0.00, -0.00, -1.00, 158.8, 3.1)">a</text><text xml:space="preserve" font-family="Helvetica-Light,Helvetica" font-size="58.0" fill="#000000" transform="matrix(1.00, 0.00, -0.00, -1.00, 191.0, 3.1)">n</text><text xml:space="preserve" font-family="Helvetica-Light,Helvetica" font-size="58.0" fill="#000000" transform="matrix(1.00, 0.00, -0.00, -1.00, 223.3, 3.1)">d</text><text xml:space="preserve" font-family="Helvetica-Light,Helvetica" font-size="58.0" fill="#000000" transform="matrix(1.00, 0.00, -0.00, -1.00, 258.7, 3.1)">s</text><text xml:space="preserve" font-family="Helvetica-Light,Helvetica" font-size="58.0" fill="#000000" transform="matrix(1.00, 0.00, -0.00, -1.00, 287.7, 3.1)"> </text><text xml:space="preserve" font-family="Helvetica-Light,Helvetica" font-size="58.0" fill="#000000" transform="matrix(1.00, 0.00, -0.00, -1.00, 303.8, 3.1)">o</text><text xml:space="preserve" font-family="Helvetica-Light,Helvetica" font-size="58.0" fill="#000000" transform="matrix(1.00, 0.00, -0.00, -1.00, 336.1, 3.1)">f</text><text xml:space="preserve" font-family="Helvetica-Light,Helvetica" font-size="58.0" fill="#000000" transform="matrix(1.00, 0.00, -0.00, -1.00, 352.2, 3.1)"> </text><text xml:space="preserve" font-family="Helvetica-Bold,Helvetica" font-weight="bold" font-size="58.0" fill="#51A7F9" transform="matrix(1.00, 0.00, -0.00, -1.00, 368.3, 3.1)">b</text><text xml:space="preserve" font-family="Helvetica-Bold,Helvetica" font-weight="bold" font-size="58.0" fill="#51A7F9" transform="matrix(1.00, 0.00, -0.00, -1.00, 403.7, 3.1)">o</text><text xml:space="preserve" font-family="Helvetica-Bold,Helvetica" font-weight="bold" font-size="58.0" fill="#51A7F9" transform="matrix(1.00, 0.00, -0.00, -1.00, 439.1, 3.1)">o</text><text xml:space="preserve" font-family="Helvetica-Bold,Helvetica" font-weight="bold" font-size="58.0" fill="#51A7F9" transform="matrix(1.00, 0.00, -0.00, -1.00, 474.6, 3.1)">k</text><text xml:space="preserve" font-family="Helvetica-Bold,Helvetica" font-weight="bold" font-size="58.0" fill="#51A7F9" transform="matrix(1.00, 0.00, -0.00, -1.00, 506.8, 3.1)">s</text><text xml:space="preserve" font-family="Helvetica-Light,Helvetica" font-size="58.0" fill="#000000" transform="matrix(1.00, 0.00, -0.00, -1.00, 539.1, 3.1)">.</text></g></svg>