<?xml version="1.0" encoding="UTF-8"?><svg xmlns="http://www.w3.org/2000/svg" xmlns:xlink="http://www.w3.org/1999/xlink" clip-rule="evenodd" stroke-miterlimit="10" viewBox="0 0 923 60"><desc>SVG generated by Keynote</desc><defs></defs><g transform="matrix(1.00, 0.00, -0.00, -1.00, 0.0, 60.0)"><text xml:space="preserve" font-family="Helvetica-Light,Helvetica" font-size="58.0" fill="#000000" transform="matrix(1.00, 0.00, -0.00, -1.00, 0.9, 14.4)">A</text><text xml:space="preserve" font-family="Helvetica-Light,Helvetica" font-size="58.0" fill="#000000" transform="matrix(1.00, 0.00, -0.00, -1.00, 39.6, 14.4)">l</text><text xml:space="preserve" font-family="Helvetica-Light,Helvetica" font-size="58.0" fill="#000000" transform="matrix(1.00, 0.00, -0.00, -1.00, 52.4, 14.4)">l</text><text xml:space="preserve" font-family="Helvetica-Light,Helvetica" font-size="58.0" fill="#000000" transform="matrix(1.00, 0.00, -0.00, -1.00, 65.3, 14.4)"> </text><text xml:space="preserve" font-family="Helvetica-Light,Helvetica" font-size="58.0" fill="#000000" transform="matrix(1.00, 0.00, -0.00, -1.00, 81.4, 14.4)">o</text><text xml:space="preserve" font-family="Helvetica-Light,Helvetica" font-size="58.0" fill="#000000" transform="matrix(1.00, 0.00, -0.00, -1.00, 113.7, 14.4)">f</text><text xml:space="preserve" font-family="Helvetica-Light,Helvetica" font-size="58.0" fill="#000000" transform="matrix(1.00, 0.00, -0.00, -1.00, 129.8, 14.4)"> </text><text xml:space="preserve" font-family="Helvetica-Light,Helvetica" font-size="58.0" fill="#000000" transform="matrix(1.00, 0.00, -0.00, -1.00, 145.9, 14.4)">t</text><text xml:space="preserve" font-family="Helvetica-Light,Helvetica" font-size="58.0" fill="#000000" transform="matrix(1.00, 0.00, -0.00, -1.00, 162.1, 14.4)">h</text><text xml:space="preserve" font-family="Helvetica-Light,Helvetica" font-size="58.0" fill="#000000" transform="matrix(1.00, 0.00, -0.00, -1.00, 194.3, 14.4)">e</text><text xml:space="preserve" font-family="Helvetica-Light,Helvetica" font-size="58.0" fill="#000000" transform="matrix(1.00, 0.00, -0.00, -1.00, 226.6, 14.4)">m</text><text xml:space="preserve" font-family="Helvetica-Light,Helvetica" font-size="58.0" fill="#000000" transform="matrix(1.00, 0.00, -0.00, -1.00, 274.9, 14.4)">,</text><text xml:space="preserve" font-family="Helvetica-Light,Helvetica" font-size="58.0" fill="#000000" transform="matrix(1.00, 0.00, -0.00, -1.00, 291.0, 14.4)"> </text><text xml:space="preserve" font-family="Helvetica-Light,Helvetica" font-size="58.0" fill="#000000" transform="matrix(1.00, 0.00, -0.00, -1.00, 307.1, 14.4)">a</text><text xml:space="preserve" font-family="Helvetica-Light,Helvetica" font-size="58.0" fill="#000000" transform="matrix(1.00, 0.00, -0.00, -1.00, 339.4, 14.4)"> </text><text xml:space="preserve" font-family="Helvetica-Bold,Helvetica" font-weight="bold" font-size="58.0" fill="#51A7F9" transform="matrix(1.00, 0.00, -0.00, -1.00, 355.5, 14.4)">G</text><text xml:space="preserve" font-family="Helvetica-Bold,Helvetica" font-weight="bold" font-size="58.0" fill="#51A7F9" transform="matrix(1.00, 0.00, -0.00, -1.00, 400.6, 14.4)">o</text><text xml:space="preserve" font-family="Helvetica-Bold,Helvetica" font-weight="bold" font-size="58.0" fill="#51A7F9" transform="matrix(1.00, 0.00, -0.00, -1.00, 436.0, 14.4)">o</text><text xml:space="preserve" font-family="Helvetica-Bold,Helvetica" font-weight="bold" font-size="58.0" fill="#51A7F9" transform="matrix(1.00, 0.00, -0.00, -1.00, 471.4, 14.4)">g</text><text xml:space="preserve" font-family="Helvetica-Bold,Helvetica" font-weight="bold" font-size="58.0" fill="#51A7F9" transform="matrix(1.00, 0.00, -0.00, -1.00, 506.8, 14.4)">l</text><text xml:space="preserve" font-family="Helvetica-Bold,Helvetica" font-weight="bold" font-size="58.0" fill="#51A7F9" transform="matrix(1.00, 0.00, -0.00, -1.00, 522.9, 14.4)">e</text><text xml:space="preserve" font-family="Helvetica-Bold,Helvetica" font-weight="bold" font-size="58.0" fill="#51A7F9" transform="matrix(1.00, 0.00, -0.00, -1.00, 555.2, 14.4)"> </text><text xml:space="preserve" font-family="Helvetica-Bold,Helvetica" font-weight="bold" font-size="58.0" fill="#51A7F9" transform="matrix(1.00, 0.00, -0.00, -1.00, 571.3, 14.4)">S</text><text xml:space="preserve" font-family="Helvetica-Bold,Helvetica" font-weight="bold" font-size="58.0" fill="#51A7F9" transform="matrix(1.00, 0.00, -0.00, -1.00, 610.0, 14.4)">e</text><text xml:space="preserve" font-family="Helvetica-Bold,Helvetica" font-weight="bold" font-size="58.0" fill="#51A7F9" transform="matrix(1.00, 0.00, -0.00, -1.00, 642.3, 14.4)">a</text><text xml:space="preserve" font-family="Helvetica-Bold,Helvetica" font-weight="bold" font-size="58.0" fill="#51A7F9" transform="matrix(1.00, 0.00, -0.00, -1.00, 674.5, 14.4)">r</text><text xml:space="preserve" font-family="Helvetica-Bold,Helvetica" font-weight="bold" font-size="58.0" fill="#51A7F9" transform="matrix(1.00, 0.00, -0.00, -1.00, 697.1, 14.4)">c</text><text xml:space="preserve" font-family="Helvetica-Bold,Helvetica" font-weight="bold" font-size="58.0" fill="#51A7F9" transform="matrix(1.00, 0.00, -0.00, -1.00, 729.4, 14.4)">h</text><text xml:space="preserve" font-family="Helvetica-Light,Helvetica" font-size="58.0" fill="#000000" transform="matrix(1.00, 0.00, -0.00, -1.00, 764.8, 14.4)"> </text><text xml:space="preserve" font-family="Helvetica-Light,Helvetica" font-size="58.0" fill="#000000" transform="matrix(1.00, 0.00, -0.00, -1.00, 781.0, 14.4)">a</text><text xml:space="preserve" font-family="Helvetica-Light,Helvetica" font-size="58.0" fill="#000000" transform="matrix(1.00, 0.00, -0.00, -1.00, 813.2, 14.4)">w</text><text xml:space="preserve" font-family="Helvetica-Light,Helvetica" font-size="58.0" fill="#000000" transform="matrix(1.00, 0.00, -0.00, -1.00, 855.1, 14.4)">a</text><text xml:space="preserve" font-family="Helvetica-Light,Helvetica" font-size="58.0" fill="#000000" transform="matrix(1.00, 0.00, -0.00, -1.00, 887.3, 14.4)">y</text><text xml:space="preserve" font-family="Helvetica-Light,Helvetica" font-size="58.0" fill="#000000" transform="matrix(1.00, 0.00, -0.00, -1.00, 911.0, 14.4)">.</text></g></svg>