<?xml version="1.0" encoding="UTF-8"?><svg xmlns="http://www.w3.org/2000/svg" xmlns:xlink="http://www.w3.org/1999/xlink" clip-rule="evenodd" stroke-miterlimit="10" viewBox="0 0 997 47"><desc>SVG generated by Keynote</desc><defs></defs><g transform="matrix(1.00, 0.00, -0.00, -1.00, 0.0, 47.0)"><text xml:space="preserve" font-family="Helvetica-Light,Helvetica" font-size="58.0" fill="#000000" transform="matrix(1.00, 0.00, -0.00, -1.00, 0.8, 2.6)">T</text><text xml:space="preserve" font-family="Helvetica-Light,Helvetica" font-size="58.0" fill="#000000" transform="matrix(1.00, 0.00, -0.00, -1.00, 33.0, 2.6)">h</text><text xml:space="preserve" font-family="Helvetica-Light,Helvetica" font-size="58.0" fill="#000000" transform="matrix(1.00, 0.00, -0.00, -1.00, 65.3, 2.6)">o</text><text xml:space="preserve" font-family="Helvetica-Light,Helvetica" font-size="58.0" fill="#000000" transform="matrix(1.00, 0.00, -0.00, -1.00, 97.5, 2.6)">u</text><text xml:space="preserve" font-family="Helvetica-Light,Helvetica" font-size="58.0" fill="#000000" transform="matrix(1.00, 0.00, -0.00, -1.00, 129.8, 2.6)">s</text><text xml:space="preserve" font-family="Helvetica-Light,Helvetica" font-size="58.0" fill="#000000" transform="matrix(1.00, 0.00, -0.00, -1.00, 158.8, 2.6)">a</text><text xml:space="preserve" font-family="Helvetica-Light,Helvetica" font-size="58.0" fill="#000000" transform="matrix(1.00, 0.00, -0.00, -1.00, 191.0, 2.6)">n</text><text xml:space="preserve" font-family="Helvetica-Light,Helvetica" font-size="58.0" fill="#000000" transform="matrix(1.00, 0.00, -0.00, -1.00, 223.3, 2.6)">d</text><text xml:space="preserve" font-family="Helvetica-Light,Helvetica" font-size="58.0" fill="#000000" transform="matrix(1.00, 0.00, -0.00, -1.00, 258.7, 2.6)">s</text><text xml:space="preserve" font-family="Helvetica-Light,Helvetica" font-size="58.0" fill="#000000" transform="matrix(1.00, 0.00, -0.00, -1.00, 287.7, 2.6)"> </text><text xml:space="preserve" font-family="Helvetica-Light,Helvetica" font-size="58.0" fill="#000000" transform="matrix(1.00, 0.00, -0.00, -1.00, 303.8, 2.6)">o</text><text xml:space="preserve" font-family="Helvetica-Light,Helvetica" font-size="58.0" fill="#000000" transform="matrix(1.00, 0.00, -0.00, -1.00, 336.1, 2.6)">f</text><text xml:space="preserve" font-family="Helvetica-Light,Helvetica" font-size="58.0" fill="#000000" transform="matrix(1.00, 0.00, -0.00, -1.00, 352.2, 2.6)"> </text><text xml:space="preserve" font-family="Helvetica-Bold,Helvetica" font-weight="bold" font-size="58.0" fill="#51A7F9" transform="matrix(1.00, 0.00, -0.00, -1.00, 368.3, 2.6)">t</text><text xml:space="preserve" font-family="Helvetica-Bold,Helvetica" font-weight="bold" font-size="58.0" fill="#51A7F9" transform="matrix(1.00, 0.00, -0.00, -1.00, 387.6, 2.6)">u</text><text xml:space="preserve" font-family="Helvetica-Bold,Helvetica" font-weight="bold" font-size="58.0" fill="#51A7F9" transform="matrix(1.00, 0.00, -0.00, -1.00, 423.1, 2.6)">t</text><text xml:space="preserve" font-family="Helvetica-Bold,Helvetica" font-weight="bold" font-size="58.0" fill="#51A7F9" transform="matrix(1.00, 0.00, -0.00, -1.00, 442.4, 2.6)">o</text><text xml:space="preserve" font-family="Helvetica-Bold,Helvetica" font-weight="bold" font-size="58.0" fill="#51A7F9" transform="matrix(1.00, 0.00, -0.00, -1.00, 477.8, 2.6)">r</text><text xml:space="preserve" font-family="Helvetica-Bold,Helvetica" font-weight="bold" font-size="58.0" fill="#51A7F9" transform="matrix(1.00, 0.00, -0.00, -1.00, 500.4, 2.6)">i</text><text xml:space="preserve" font-family="Helvetica-Bold,Helvetica" font-weight="bold" font-size="58.0" fill="#51A7F9" transform="matrix(1.00, 0.00, -0.00, -1.00, 516.5, 2.6)">a</text><text xml:space="preserve" font-family="Helvetica-Bold,Helvetica" font-weight="bold" font-size="58.0" fill="#51A7F9" transform="matrix(1.00, 0.00, -0.00, -1.00, 548.7, 2.6)">l</text><text xml:space="preserve" font-family="Helvetica-Bold,Helvetica" font-weight="bold" font-size="58.0" fill="#51A7F9" transform="matrix(1.00, 0.00, -0.00, -1.00, 564.8, 2.6)">s</text><text xml:space="preserve" font-family="Helvetica-Light,Helvetica" font-size="58.0" fill="#000000" transform="matrix(1.00, 0.00, -0.00, -1.00, 597.1, 2.6)"> </text><text xml:space="preserve" font-family="Helvetica-Light,Helvetica" font-size="58.0" fill="#000000" transform="matrix(1.00, 0.00, -0.00, -1.00, 613.3, 2.6)">o</text><text xml:space="preserve" font-family="Helvetica-Light,Helvetica" font-size="58.0" fill="#000000" transform="matrix(1.00, 0.00, -0.00, -1.00, 645.5, 2.6)">n</text><text xml:space="preserve" font-family="Helvetica-Light,Helvetica" font-size="58.0" fill="#000000" transform="matrix(1.00, 0.00, -0.00, -1.00, 677.7, 2.6)"> </text><text xml:space="preserve" font-family="Helvetica-Light,Helvetica" font-size="58.0" fill="#000000" transform="matrix(1.00, 0.00, -0.00, -1.00, 693.9, 2.6)">t</text><text xml:space="preserve" font-family="Helvetica-Light,Helvetica" font-size="58.0" fill="#000000" transform="matrix(1.00, 0.00, -0.00, -1.00, 710.0, 2.6)">h</text><text xml:space="preserve" font-family="Helvetica-Light,Helvetica" font-size="58.0" fill="#000000" transform="matrix(1.00, 0.00, -0.00, -1.00, 742.2, 2.6)">e</text><text xml:space="preserve" font-family="Helvetica-Light,Helvetica" font-size="58.0" fill="#000000" transform="matrix(1.00, 0.00, -0.00, -1.00, 774.5, 2.6)"> </text><text xml:space="preserve" font-family="Helvetica-Light,Helvetica" font-size="58.0" fill="#000000" transform="matrix(1.00, 0.00, -0.00, -1.00, 790.6, 2.6)">i</text><text xml:space="preserve" font-family="Helvetica-Light,Helvetica" font-size="58.0" fill="#000000" transform="matrix(1.00, 0.00, -0.00, -1.00, 803.5, 2.6)">n</text><text xml:space="preserve" font-family="Helvetica-Light,Helvetica" font-size="58.0" fill="#000000" transform="matrix(1.00, 0.00, -0.00, -1.00, 835.7, 2.6)">t</text><text xml:space="preserve" font-family="Helvetica-Light,Helvetica" font-size="58.0" fill="#000000" transform="matrix(1.00, 0.00, -0.00, -1.00, 851.9, 2.6)">e</text><text xml:space="preserve" font-family="Helvetica-Light,Helvetica" font-size="58.0" fill="#000000" transform="matrix(1.00, 0.00, -0.00, -1.00, 884.1, 2.6)">r</text><text xml:space="preserve" font-family="Helvetica-Light,Helvetica" font-size="58.0" fill="#000000" transform="matrix(1.00, 0.00, -0.00, -1.00, 904.5, 2.6)">n</text><text xml:space="preserve" font-family="Helvetica-Light,Helvetica" font-size="58.0" fill="#000000" transform="matrix(1.00, 0.00, -0.00, -1.00, 936.7, 2.6)">e</text><text xml:space="preserve" font-family="Helvetica-Light,Helvetica" font-size="58.0" fill="#000000" transform="matrix(1.00, 0.00, -0.00, -1.00, 969.0, 2.6)">t</text><text xml:space="preserve" font-family="Helvetica-Light,Helvetica" font-size="58.0" fill="#000000" transform="matrix(1.00, 0.00, -0.00, -1.00, 985.1, 2.6)">.</text></g></svg>